<?xml version="1.0" encoding="utf-8"?>
<!-- Generator: Adobe Illustrator 27.5.0, SVG Export Plug-In . SVG Version: 6.00 Build 0)  -->
<svg version="1.1" xmlns="http://www.w3.org/2000/svg" xmlns:xlink="http://www.w3.org/1999/xlink" x="0px" y="0px"
	 viewBox="0 0 500 500" style="enable-background:new 0 0 500 500;" xml:space="preserve">
<g id="BACKGROUND">
	<rect style="fill:#5E88AA;" width="500" height="500"/>
	<g>
		
			<ellipse transform="matrix(0.7071 -0.7071 0.7071 0.7071 2.0325 268.8527)" style="fill:#7BA4C7;" cx="325.55" cy="131.973" rx="85.766" ry="85.766"/>
		
			<ellipse transform="matrix(0.2298 -0.9732 0.9732 0.2298 122.3115 418.493)" style="fill:#8EB7D4;" cx="325.55" cy="131.973" rx="69.731" ry="69.731"/>
	</g>
	<g>
		<circle style="fill:#7BA4C7;" cx="172.913" cy="160.85" r="52.446"/>
		
			<ellipse transform="matrix(0.2256 -0.9742 0.9742 0.2256 -22.8037 293.0117)" style="fill:#8EB7D4;" cx="172.913" cy="160.85" rx="42.64" ry="42.64"/>
	</g>
	<g>
		
			<ellipse transform="matrix(0.8687 -0.4954 0.4954 0.8687 -102.3529 72.151)" style="fill:#7BA4C7;" cx="84.906" cy="229.12" rx="29.797" ry="29.797"/>
		
			<ellipse transform="matrix(0.8676 -0.4972 0.4972 0.8676 -102.6805 72.5427)" style="fill:#8EB7D4;" cx="84.906" cy="229.12" rx="24.226" ry="24.226"/>
	</g>
	<g>
		<circle style="fill:#7BA4C7;" cx="379.341" cy="277.654" r="57.003"/>
		<circle style="fill:#8EB7D4;" cx="379.341" cy="277.654" r="46.346"/>
	</g>
	<g>
		
			<ellipse transform="matrix(0.2298 -0.9732 0.9732 0.2298 -117.2452 649.1816)" style="fill:#7BA4C7;" cx="351.515" cy="398.664" rx="40.406" ry="40.406"/>
		
			<ellipse transform="matrix(0.2298 -0.9732 0.9732 0.2298 -117.2451 649.1817)" style="fill:#8EB7D4;" cx="351.515" cy="398.664" rx="32.852" ry="32.852"/>
	</g>
</g>
<g id="OBJECTS">
	<g>
		<path style="fill:#FFC353;" d="M336.88,399.332l-12.27-7.785c-2.995,1.234-34.02,13.797-75.266,22.386
			c-38.833,8.086-94.723,14.164-143.081-1.864c7.405,4.406,26.529,14.383,56.316,20.327c35.839,7.15,94.879,9.753,172.685-18.405
			L336.88,399.332z"/>
		<path style="fill:#1D2A35;" d="M337.654,398.677l-12.737-8.083c-0.133-0.086-0.301-0.101-0.448-0.038
			c-0.317,0.133-32.233,13.456-75.342,22.432c-39.76,8.277-97.443,14.444-146.459-3.186c-0.226-0.08-0.481,0.016-0.592,0.231
			c-0.113,0.214-0.05,0.478,0.146,0.619c0.052,0.037,5.281,3.761,15.261,8.393c9.196,4.268,24.442,10.211,44.845,14.288
			c13.574,2.712,30.457,4.776,50.418,4.775c33.002,0,74.41-5.64,123.132-23.309c0.173-0.062,0.296-0.219,0.316-0.402l1.682-15.258
			C337.896,398.955,337.81,398.775,337.654,398.677z M162.579,432.395c-29.787-5.943-48.911-15.92-56.316-20.327
			c48.358,16.028,104.249,9.95,143.081,1.864c41.246-8.589,72.271-21.152,75.266-22.386l12.27,7.785l-1.616,14.658
			C257.458,442.148,198.418,439.545,162.579,432.395z"/>
		<path style="fill:#FFFFFF;" d="M164.083,421.89c-19.455-0.763-39.196-3.648-57.821-9.821c6.572,3.911,22.383,12.207,46.679,18.18
			c-2.981-2.149-5.962-4.298-8.943-6.447C150.715,424.832,157.678,424.149,164.083,421.89z"/>
		<path style="fill:#E98B31;" d="M335.264,413.99l1.616-14.658l-12.27-7.785c-2.614,1.077-26.588,10.785-60.072,18.949
			c7.857,0.129,15.715,0.259,23.573,0.388c-4.979,2.764-10.023,5.412-15.126,7.941c8.875,0.047,17.754-0.593,26.531-1.911
			c-5.802,4.429-11.781,8.627-17.91,12.592C298.328,425.915,316.23,420.878,335.264,413.99z"/>
	</g>
	<g>
		<g>
			<path style="fill:#FFC353;" d="M289,162.831c-1.494,3.543-19.172,44.847-50.459,92.059
				c-29.494,44.506-77.352,103.349-138.994,133.369c13.69-3.069,42.16-12.969,74.127-34.061
				c25.981-17.143,50.548-38.956,73.017-64.831c28.032-32.281,52.86-71.015,73.799-115.128l-12.356-15.582L289,162.831z"/>
			<path style="fill:#1D2A35;" d="M321.471,173.86l-12.745-16.072c-0.119-0.15-0.313-0.216-0.5-0.178l-19.695,4.296
				c-0.161,0.035-0.294,0.147-0.357,0.298c-0.176,0.426-17.968,43.089-50.481,92.148c-29.991,45.254-79.001,105.357-142.16,134.705
				c-0.227,0.105-0.341,0.362-0.268,0.602c0.067,0.22,0.274,0.363,0.499,0.355c0.02-0.001,0.039-0.003,0.06-0.006
				c0.335-0.053,33.944-5.65,78.349-34.936c26.066-17.191,50.709-39.064,73.246-65.011c28.164-32.427,53.1-71.345,74.113-115.674
				C321.613,174.215,321.59,174.011,321.471,173.86z M246.691,289.367c-22.469,25.876-47.036,47.688-73.017,64.831
				c-31.967,21.092-60.437,30.992-74.127,34.061c61.641-30.021,109.499-88.863,138.994-133.369
				c31.288-47.212,48.966-88.516,50.459-92.059l19.134-4.174l12.356,15.582C299.551,218.352,274.723,257.086,246.691,289.367z"/>
			<path style="fill:#E98B31;" d="M308.134,158.658L289,162.831c-1.494,3.543-19.172,44.847-50.459,92.059
				c-16.41,24.762-38.512,53.958-65.502,80.163c6.222-4.926,12.357-9.961,18.392-15.115c-3.08,4.961-6.161,9.922-9.242,14.883
				c12.819-8.106,25.095-17.071,36.718-26.816c-2.94,6.389-6.106,12.673-9.468,18.85c12.933-11.308,25.388-23.826,37.252-37.489
				c28.032-32.281,52.86-71.015,73.799-115.128L308.134,158.658z"/>
			<path style="fill:#E95231;" d="M308.134,158.658L289,162.831c-1.494,3.543-19.172,44.847-50.459,92.059
				c-0.448,0.676-0.916,1.367-1.372,2.049c5.304-3.265,10.508-6.692,15.598-10.282c-5.133,11.459-10.265,22.919-15.397,34.378
				c13.26-10.566,25.605-22.279,36.853-34.964c-2.094,3.923-4.189,7.845-6.283,11.768c2.623-1.984,5.244-3.975,7.86-5.974
				c16.361-23.5,31.323-49.46,44.692-77.625L308.134,158.658z"/>
			<path style="fill:#B33C28;" d="M308.134,158.658L289,162.831c-0.848,2.01-6.912,16.186-17.711,36.693
				c3.537-3.472,6.975-7.044,10.291-10.727c-2.465,5.227-4.243,10.778-5.273,16.464c7.354-6.887,15.315-13.126,23.76-18.62
				c-3.866,12.417-9.041,24.426-15.411,35.764c6.141-4.192,12.101-8.647,17.865-13.344c6.269-11.194,12.265-22.806,17.969-34.822
				L308.134,158.658z"/>
			<path style="fill:#FFFFFF;" d="M141.447,362.269c-13.135,9.92-27.116,18.79-41.9,25.99c8.374-1.877,22.284-6.317,39.136-14.305
				c-3.137,0.542-6.279,1.056-9.431,1.511C133.585,371.324,137.652,366.908,141.447,362.269z"/>
		</g>
		<g>
			<polygon style="fill:#E95231;" points="312.792,151.89 304.714,166.481 331.372,209.039 339.451,194.449 			"/>
			<polygon style="fill:#E95231;" points="311.903,151.423 261.71,152.504 253.639,167.082 303.832,166.001 			"/>
			<polygon style="fill:#E98B31;" points="277.358,65.35 269.377,79.766 284.633,123.488 293.817,112.519 			"/>
			<polygon style="fill:#E95231;" points="355.248,145.667 351.209,159.077 395.709,147.929 403.678,133.536 			"/>
			<path style="fill:#FFC353;" d="M354.369,145.105c0.05-0.17,0.187-0.3,0.359-0.343l48.754-12.213l-41.289-28.659
				c-0.145-0.101-0.226-0.27-0.214-0.447l3.45-50.141l-40.015,30.412c-0.141,0.108-0.327,0.133-0.491,0.066l-46.622-18.777
				l16.559,47.455c0.057,0.167,0.024,0.353-0.089,0.487l-32.265,38.537l50.249-1.083c0.01,0,0.017,0.006,0.027,0.007
				c0.07,0.002,0.14,0.017,0.207,0.05c0.005,0.003,0.012,0.003,0.017,0.005c0.001,0,0.002,0,0.003,0.001
				c0.071,0.039,0.124,0.095,0.167,0.158c0.004,0.006,0.012,0.008,0.016,0.015l26.681,42.594L354.369,145.105z"/>
			<path style="fill:#1D2A35;" d="M405.169,132.842c0.013-0.084,0.002-0.167-0.026-0.245c-0.007-0.018-0.016-0.032-0.025-0.049
				c-0.031-0.062-0.074-0.115-0.129-0.161c-0.011-0.009-0.014-0.023-0.025-0.031L363,103.228l3.507-50.961
				c0.014-0.197-0.089-0.383-0.263-0.477c-0.171-0.092-0.385-0.078-0.542,0.042l-40.669,30.909L277.65,63.658
				c-0.013-0.005-0.027,0-0.04-0.004c-0.068-0.021-0.135-0.028-0.203-0.02c-0.019,0.002-0.036,0-0.054,0.005
				c-0.081,0.018-0.154,0.056-0.218,0.112c-0.005,0.005-0.013,0.004-0.018,0.009c-0.01,0.01-0.011,0.026-0.021,0.036
				c-0.024,0.028-0.053,0.05-0.072,0.084l-8.634,15.595c-0.07,0.125-0.082,0.274-0.035,0.409l15.528,44.501l-22.857,27.301
				c-0.008,0.009-0.007,0.022-0.014,0.032c-0.012,0.017-0.03,0.028-0.04,0.047l-8.634,15.595c-0.087,0.158-0.084,0.349,0.01,0.503
				c0.093,0.154,0.261,0.246,0.44,0.242l51.07-1.1l27.116,43.289c0.094,0.15,0.262,0.24,0.439,0.235c0.002,0,0.004,0,0.006,0
				c0.176-0.007,0.335-0.105,0.42-0.259l8.634-15.594c0.012-0.022,0.013-0.046,0.022-0.068c0.004-0.012,0.016-0.018,0.02-0.031
				l10.358-34.381l45.293-11.346c0.135-0.034,0.251-0.123,0.318-0.244l8.634-15.595c0.021-0.038,0.027-0.079,0.037-0.118
				c0.003-0.013,0.015-0.021,0.018-0.035C405.172,132.852,405.169,132.848,405.169,132.842z M339.871,193.229l-26.681-42.594
				c-0.004-0.006-0.012-0.009-0.016-0.015c-0.043-0.063-0.096-0.119-0.167-0.158c-0.001,0-0.002,0-0.003-0.001
				c-0.005-0.003-0.012-0.003-0.017-0.005c-0.066-0.033-0.136-0.048-0.207-0.05c-0.009,0-0.017-0.007-0.027-0.007l-50.249,1.083
				l32.265-38.537c0.114-0.135,0.147-0.321,0.089-0.487l-16.559-47.455l46.622,18.777c0.165,0.067,0.35,0.042,0.491-0.066
				l40.015-30.412l-3.45,50.141c-0.012,0.177,0.069,0.347,0.214,0.447l41.289,28.659l-48.754,12.213
				c-0.172,0.043-0.309,0.173-0.359,0.343L339.871,193.229z M269.377,79.766l7.981-14.416l16.459,47.169l-9.184,10.969
				L269.377,79.766z M261.71,152.504l50.193-1.081l-8.071,14.578l-50.193,1.081L261.71,152.504z M331.372,209.039l-26.658-42.558
				l8.078-14.591l26.659,42.559L331.372,209.039z M395.709,147.929l-44.5,11.148l4.039-13.409l48.429-12.132L395.709,147.929z"/>
			<path style="fill:#E98B31;" d="M375.102,112.851c-30.48,23.025-69.321,35.111-107.461,32.497l-5.135,6.134l50.249-1.083
				c0.01,0,0.017,0.006,0.027,0.007c0.07,0.002,0.14,0.017,0.207,0.05c0.005,0.003,0.012,0.003,0.017,0.005
				c0.001,0,0.002,0,0.003,0.001c0.071,0.039,0.124,0.095,0.167,0.158c0.004,0.006,0.012,0.008,0.016,0.015l26.681,42.594
				l14.498-48.124c0.05-0.17,0.187-0.3,0.359-0.343l48.754-12.213L375.102,112.851z"/>
			<g>
				<path style="fill:#1D2A35;" d="M304.666,127.147c-0.497,0.019-0.942-0.333-1.027-0.835c-0.094-0.547,0.275-1.066,0.821-1.158
					l1.683-0.286c-2.155-2.399-4.074-6.507-1.378-11.091c1.16-1.972,2.716-3.153,4.623-3.509c3.794-0.703,7.522,2.207,7.679,2.331
					c0.434,0.344,0.507,0.974,0.164,1.409c-0.343,0.433-0.975,0.508-1.41,0.166c-0.031-0.025-3.188-2.47-6.071-1.931
					c-1.326,0.25-2.39,1.084-3.253,2.552c-3.285,5.584,2.193,9.737,2.427,9.912c0.323,0.24,0.474,0.649,0.38,1.042
					c-0.094,0.391-0.411,0.689-0.807,0.756l-3.699,0.628C304.753,127.141,304.709,127.146,304.666,127.147z"/>
			</g>
			<g>
				<path style="fill:#1D2A35;" d="M323.159,104.806c-0.249,0.009-0.5-0.073-0.702-0.251c-0.145-0.128-3.555-3.18-3.53-6.915
					c0.013-1.88,0.872-3.566,2.554-5.009c3.88-3.329,8.085-2.242,10.741-0.618l-0.015-1.58c-0.004-0.545,0.425-0.992,0.965-1.013
					c0.011-0.001,0.021-0.001,0.03-0.001c0.554-0.005,1.008,0.44,1.014,0.996l0.034,3.616c0.004,0.403-0.234,0.77-0.604,0.93
					c-0.372,0.16-0.801,0.084-1.092-0.193c-0.203-0.19-5.053-4.657-9.764-0.613c-1.237,1.061-1.843,2.203-1.855,3.492
					c-0.025,2.815,2.822,5.378,2.851,5.403c0.414,0.368,0.453,1.002,0.085,1.417C323.683,104.682,323.424,104.796,323.159,104.806z"
					/>
			</g>
			<path style="fill:#1D2A35;" d="M335.178,105.12c0.676-0.169,1.425-0.198,2.206,0.065c0.52,0.177,1.094-0.105,1.272-0.631
				c0.177-0.525-0.105-1.095-0.631-1.272c-4.03-1.359-7.18,2.159-7.311,2.31c-0.365,0.416-0.324,1.047,0.091,1.414
				c0.201,0.178,0.454,0.259,0.702,0.25c0.265-0.01,0.525-0.124,0.714-0.337c0.01-0.011,0.43-0.471,1.11-0.939
				c0.032,0.059,0.052,0.122,0.098,0.176c0.072,0.085,7.173,8.533,2.215,14.484c-5.024,6.033-16.145,1.405-16.256,1.358
				c-0.183-0.078-0.372-0.08-0.554-0.049c0.228-0.598,0.58-0.909,0.666-0.978c0.436-0.334,0.524-0.957,0.195-1.397
				c-0.331-0.445-0.961-0.536-1.406-0.205c-1.106,0.825-2.678,3.404-0.713,7.267c0.184,0.361,0.555,0.563,0.935,0.548
				c0.14-0.005,0.282-0.04,0.416-0.108c0.495-0.252,0.691-0.857,0.44-1.351c-0.354-0.695-0.55-1.3-0.65-1.83
				c0.81,0.331,5.232,2.039,9.882,1.861c3.095-0.119,6.293-1.075,8.588-3.83C342.747,115.252,336.488,106.755,335.178,105.12z"/>
			<path style="fill:#FFFFFF;" d="M365.429,53.302l-40.015,30.412c-0.141,0.108-0.327,0.133-0.491,0.066l-46.622-18.777
				l7.888,22.606c18.739,2.404,47.352,1.613,77.949-15.543L365.429,53.302z"/>
			<path style="fill:#FF586B;" d="M346.312,97.198c-2.254,2.434-5.583,3.016-7.435,1.3c-1.853-1.716-1.527-5.08,0.727-7.513
				s5.583-3.015,7.436-1.3C348.892,91.4,348.566,94.764,346.312,97.198z"/>
			<path style="fill:#FF586B;" d="M313.949,136.686c-2.254,2.434-5.583,3.015-7.436,1.3c-1.853-1.716-1.527-5.08,0.727-7.513
				c2.254-2.434,5.583-3.015,7.435-1.3C316.528,130.889,316.203,134.253,313.949,136.686z"/>
			<path style="fill:#E98B31;" d="M327.639,110.838c0.087-0.264,0.189-0.549,0.422-0.702c0.287-0.189,0.69-0.105,0.956,0.113
				s0.422,0.539,0.552,0.857c0.757,1.854,0.877,3.961,0.337,5.889c-0.285,1.019-0.85,2.081-1.853,2.42
				c-0.429,0.145-0.894,0.14-1.346,0.108c-1.704-0.122-4.452-1.159-2.866-3.148c0.702-0.88,1.749-1.343,2.403-2.307
				C326.905,113.095,327.274,111.943,327.639,110.838z"/>
			<path style="fill:#1D2A35;" d="M329.716,110.058c-0.65-1.46-1.876-2.869-3.483-3.266c-1.677-0.414-2.982,0.712-3.571,2.194
				c-0.34,0.854-0.462,1.794-0.85,2.627c-0.368,0.79-1.11,1.31-1.982,1.39c-0.095,0.009-0.187,0.128-0.114,0.217
				c0.86,1.044,2.374,0.238,3.018-0.652c0.462-0.639,0.692-1.367,0.909-2.115c0.185-0.637,0.378-1.311,0.827-1.82
				c1.03-1.169,2.572-0.03,3.287,0.929c0.801,1.074,1.189,2.451,0.934,3.779c-0.136,0.711-0.422,1.397-0.848,1.985
				c-0.422,0.582-1.202,1.092-1.302,1.848c-0.03,0.223,0.073,0.417,0.298,0.481c0.76,0.218,1.487-0.426,1.931-0.97
				c0.508-0.623,0.89-1.316,1.156-2.073C330.439,113.142,330.347,111.477,329.716,110.058z"/>
		</g>
	</g>
	<g>
		<g>
			<path style="fill:#FFC353;" d="M166.43,182.986c-0.145,3.196-1.776,34.79-10.867,73.533
				c-8.556,36.466-25.608,86.693-58.517,121.789c6.928-4.768,22.885-17.163,39.615-39.98
				c20.453-27.895,46.273-77.511,53.203-155.518l-11.89-7.217L166.43,182.986z"/>
			<path style="fill:#1D2A35;" d="M190.652,182.114l-12.424-7.542c-0.164-0.097-0.37-0.096-0.532,0.007l-12.028,7.702
				c-0.138,0.088-0.225,0.239-0.231,0.404c-0.012,0.326-1.332,33.04-10.856,73.624c-8.784,37.428-26.541,89.394-61.255,124.411
				c-0.176,0.177-0.194,0.458-0.042,0.657c0.098,0.128,0.247,0.198,0.399,0.198c0.084,0,0.169-0.021,0.246-0.065
				c0.209-0.118,21.189-12.124,43.502-42.536c20.573-28.039,46.547-77.933,53.46-156.387
				C190.908,182.398,190.815,182.214,190.652,182.114z M136.661,338.328c-16.73,22.817-32.687,35.212-39.615,39.98
				c32.91-35.096,49.962-85.323,58.517-121.789c9.09-38.743,10.721-70.337,10.867-73.533l11.544-7.392l11.89,7.217
				C182.933,260.817,157.114,310.433,136.661,338.328z"/>
			<path style="fill:#E98B31;" d="M177.974,175.594l-11.544,7.392c-0.145,3.196-1.776,34.79-10.867,73.533
				c-2.23,9.503-5.043,19.943-8.556,30.803c3.47-6.911,6.94-13.822,10.41-20.732c-0.665,7.219-1.09,14.461-1.274,21.708
				c5.596-10.116,10.178-20.793,13.655-31.819c-0.249,3.663-0.498,7.327-0.747,10.99c2.479-3.805,4.904-7.673,7.24-11.601
				c6.197-20.934,11.096-45.173,13.573-73.058L177.974,175.594z"/>
			<path style="fill:#E95231;" d="M177.974,175.594l-11.544,7.392c-0.096,2.122-0.851,16.769-4.005,37.707
				c0.098,1.494,0.196,2.988,0.294,4.482c2.281-3.759,4.562-7.518,6.842-11.277c0.049,10.307-1.047,20.619-3.262,30.686
				c6.219-9.374,11.139-19.608,14.574-30.32c0.458,4.196,0.27,8.462-0.557,12.602c1.449-1.956,2.901-3.923,4.337-5.906
				c2.223-11.882,4.005-24.58,5.211-38.15L177.974,175.594z"/>
			<path style="fill:#FFFFFF;" d="M97.046,378.308c6.592-4.537,21.36-15.987,37.189-36.743c-4.303,3.475-8.621,6.932-12.966,10.355
				c2.297-5.615,4.318-11.342,6.07-17.15C119.149,350.373,109.178,365.37,97.046,378.308z"/>
		</g>
		<g>
			<polygon style="fill:#E95231;" points="176.413,179.395 152.206,197.803 153.407,207.523 177.614,189.115 			"/>
			<polygon style="fill:#E95231;" points="177.407,179.249 178.61,188.986 206.835,200.344 205.633,190.608 			"/>
			<polygon style="fill:#E98B31;" points="128.524,149.136 129.703,158.672 152.74,174.652 153.31,166.329 			"/>
			<polygon style="fill:#E95231;" points="196.253,160.549 198.942,168.25 216.765,146.95 215.59,137.44 			"/>
			<path style="fill:#1D2A35;" d="M217.788,147.043l-1.344-10.874c-0.006-0.045-0.025-0.084-0.041-0.125
				c-0.004-0.01,0-0.021-0.005-0.031c-0.002-0.004-0.006-0.005-0.008-0.009c-0.039-0.079-0.098-0.142-0.169-0.189
				c-0.011-0.007-0.023-0.011-0.034-0.017c-0.065-0.036-0.137-0.055-0.215-0.059c-0.013-0.001-0.023-0.01-0.036-0.01l-31.282,0.684
				l-16.616-26.511c-0.105-0.167-0.295-0.254-0.492-0.23c-0.195,0.025-0.357,0.164-0.414,0.352l-9.017,29.962l-30.349,7.611
				c-0.014,0.004-0.023,0.017-0.037,0.022c-0.066,0.023-0.124,0.057-0.174,0.103c-0.014,0.012-0.028,0.021-0.041,0.035
				c-0.055,0.063-0.092,0.136-0.111,0.219c-0.002,0.007-0.008,0.011-0.009,0.018c-0.003,0.014,0.006,0.027,0.004,0.042
				c-0.004,0.037-0.013,0.072-0.008,0.11l1.344,10.874c0.018,0.141,0.094,0.27,0.212,0.351l23.714,16.45l-1.489,21.724
				c-0.001,0.012,0.008,0.022,0.008,0.034c0,0.021-0.007,0.04-0.005,0.062l1.344,10.874c0.022,0.178,0.137,0.332,0.303,0.401
				c0.063,0.027,0.13,0.039,0.195,0.039c0.108,0,0.215-0.035,0.304-0.102l24.905-18.939l29.026,11.68
				c0.165,0.067,0.352,0.041,0.493-0.068c0.141-0.109,0.214-0.283,0.192-0.46l-1.344-10.875c-0.003-0.025-0.016-0.045-0.023-0.069
				c-0.003-0.012,0.002-0.023-0.002-0.035l-7.24-20.732l18.347-21.927C217.765,147.321,217.806,147.182,217.788,147.043z
				 M176.992,178c-0.004-0.001-0.008,0-0.012-0.001c-0.074-0.027-0.152-0.043-0.237-0.031c-0.001,0-0.001,0.001-0.002,0.001
				c-0.006,0.001-0.011,0.005-0.016,0.006c-0.074,0.012-0.14,0.041-0.198,0.081c-0.008,0.005-0.018,0.005-0.025,0.01l-24.251,18.443
				l2.083-30.396c0.012-0.176-0.07-0.346-0.215-0.447l-25.034-17.365l29.553-7.411c0.171-0.043,0.307-0.174,0.358-0.342
				l8.779-29.175l16.181,25.814c0.094,0.15,0.256,0.232,0.437,0.235l30.461-0.665L195.3,160.123
				c-0.113,0.136-0.147,0.322-0.088,0.488l10.045,28.763L176.992,178z M129.703,158.672l-1.179-9.536l24.786,17.193l-0.571,8.324
				L129.703,158.672z M152.206,197.803l24.207-18.409l1.201,9.721l-24.207,18.408L152.206,197.803z M206.835,200.344l-28.225-11.358
				l-1.203-9.736l28.226,11.359L206.835,200.344z M198.942,168.25l-2.689-7.701l19.337-23.109l1.175,9.51L198.942,168.25z"/>
			<path style="fill:#FFC353;" d="M195.211,160.611c-0.059-0.167-0.025-0.352,0.088-0.488l19.552-23.365l-30.461,0.665
				c-0.181-0.003-0.342-0.085-0.437-0.235l-16.181-25.814l-8.779,29.175c-0.051,0.169-0.187,0.299-0.358,0.342l-29.553,7.411
				l25.034,17.365c0.145,0.101,0.227,0.271,0.215,0.447l-2.083,30.396l24.251-18.443c0.008-0.006,0.017-0.005,0.025-0.01
				c0.059-0.04,0.124-0.069,0.198-0.081c0.006-0.001,0.011-0.005,0.016-0.006c0.001,0,0.002-0.001,0.002-0.001
				c0.085-0.012,0.164,0.003,0.237,0.031c0.004,0.001,0.008,0,0.012,0.001l28.265,11.374L195.211,160.611z"/>
			<path style="fill:#E98B31;" d="M214.852,136.757l-7.847,0.171c-4.641,12.998-13.518,24.466-25.005,32.128
				c-8.517,5.68-18.415,9.232-28.582,10.404l-1.168,17.048l24.251-18.443c0.008-0.006,0.017-0.005,0.025-0.01
				c0.059-0.04,0.124-0.069,0.198-0.081c0.006-0.001,0.011-0.005,0.016-0.006c0.001,0,0.002-0.001,0.002-0.001
				c0.085-0.012,0.164,0.003,0.237,0.031c0.004,0.001,0.008,0,0.012,0.001l28.265,11.374l-10.045-28.763
				c-0.059-0.167-0.025-0.352,0.088-0.488L214.852,136.757z"/>
			<g>
				<path style="fill:#FFFFFF;" d="M129.084,148.301l3.668,2.544c7.062-2.057,13.893-4.884,20.239-8.539L129.084,148.301z"/>
				<path style="fill:#FFFFFF;" d="M167.774,111.372l-7.99,26.553c1.059-0.761,2.106-1.54,3.126-2.355
					c4.549-3.638,8.67-7.851,12.2-12.495L167.774,111.372z"/>
			</g>
			<path style="fill:#1D2A35;" d="M167.421,146.552c0.363,2.674-0.822,5.043-2.648,5.291c-1.826,0.248-3.601-1.718-3.964-4.392
				c-0.364-2.674,0.822-5.042,2.648-5.291C165.283,141.912,167.058,143.878,167.421,146.552z"/>
			<path style="fill:#1D2A35;" d="M182.42,144.691c0.364,2.674-0.822,5.043-2.648,5.291c-1.826,0.248-3.601-1.718-3.964-4.392
				c-0.363-2.674,0.822-5.043,2.648-5.291C180.281,140.051,182.056,142.017,182.42,144.691z"/>
			<path style="fill:#1D2A35;" d="M163.755,155.797l18.542-1.957c0.866-0.091,1.614,0.608,1.567,1.478
				c-0.173,3.155-1.451,9.84-9.102,10.854c-7.601,1.007-10.986-5.312-12.189-8.472C162.244,156.834,162.834,155.894,163.755,155.797
				z"/>
			<path style="fill:#FFFFFF;" d="M167.087,142.825c-0.074-0.264-0.208-0.494-0.401-0.689c-0.105-0.081-0.211-0.163-0.316-0.244
				c-0.243-0.141-0.506-0.212-0.788-0.213c-0.215-0.008-0.415,0.037-0.602,0.135c-0.194,0.063-0.361,0.171-0.503,0.323
				c-0.152,0.141-0.26,0.309-0.323,0.503c-0.098,0.186-0.143,0.386-0.135,0.602c0.019,0.138,0.037,0.277,0.056,0.415
				c0.074,0.265,0.208,0.494,0.402,0.689c0.105,0.081,0.211,0.163,0.316,0.244c0.243,0.141,0.506,0.212,0.788,0.213
				c0.215,0.008,0.416-0.037,0.602-0.134c0.194-0.063,0.361-0.171,0.503-0.323c0.152-0.141,0.26-0.309,0.323-0.502
				c0.098-0.186,0.143-0.387,0.135-0.602C167.124,143.102,167.106,142.963,167.087,142.825z"/>
			<path style="fill:#FFFFFF;" d="M182.132,141.207c-0.074-0.264-0.208-0.494-0.402-0.689c-0.105-0.081-0.211-0.163-0.316-0.244
				c-0.244-0.141-0.506-0.212-0.788-0.213c-0.215-0.008-0.416,0.037-0.602,0.135c-0.194,0.063-0.361,0.171-0.503,0.323
				c-0.152,0.141-0.26,0.309-0.323,0.503c-0.098,0.186-0.143,0.386-0.135,0.601c0.019,0.139,0.037,0.277,0.056,0.415
				c0.074,0.265,0.208,0.494,0.402,0.689c0.105,0.081,0.211,0.163,0.316,0.244c0.243,0.141,0.506,0.212,0.788,0.213
				c0.215,0.008,0.415-0.037,0.602-0.134c0.193-0.063,0.361-0.171,0.503-0.323c0.152-0.141,0.26-0.309,0.323-0.502
				c0.098-0.186,0.143-0.387,0.134-0.602C182.17,141.484,182.151,141.346,182.132,141.207z"/>
			<path style="fill:#FF586B;" d="M174.762,166.172c3.291-0.436,5.398-1.924,6.75-3.728c-0.145-0.06-0.289-0.122-0.434-0.179
				c-1.353-0.534-2.742-1.019-4.187-1.18c-3.083-0.342-6.21,0.852-8.616,2.809c-0.248,0.202-0.487,0.418-0.718,0.642
				C169.378,165.801,171.73,166.574,174.762,166.172z"/>
			<path style="fill:#FF586B;" d="M191.743,149.723c0.163,1.525-1.703,2.975-4.169,3.239c-2.466,0.264-4.597-0.758-4.76-2.283
				c-0.163-1.525,1.703-2.975,4.169-3.239C189.449,147.177,191.58,148.199,191.743,149.723z"/>
			<path style="fill:#FF586B;" d="M162.198,152.878c0.163,1.525-1.703,2.975-4.169,3.239c-2.466,0.264-4.597-0.758-4.76-2.282
				c-0.163-1.525,1.703-2.975,4.169-3.239C159.904,150.331,162.035,151.353,162.198,152.878z"/>
			<path style="fill:#E98B31;" d="M172.202,150.898c-0.774,0.331-1.599,0.604-2.223,1.169c-0.114,0.103-0.223,0.22-0.272,0.365
				c-0.118,0.349,0.144,0.71,0.427,0.946c1.309,1.091,3.464,0.958,4.629-0.286c0.64-0.683,2.02-3.084,0.843-3.807
				c-0.521-0.32-0.945-0.045-1.344,0.283C173.6,150.111,173.001,150.557,172.202,150.898z"/>
			<path style="fill:#1D2A35;" d="M172.402,145.958c-0.564,0.102-1.086,0.375-1.507,0.761c-0.306,0.281-0.895,0.88-0.613,1.329
				c0.054,0.085,0.14,0.112,0.235,0.096c0.252-0.042,0.363-0.263,0.498-0.453c0.134-0.19,0.301-0.364,0.484-0.508
				c0.422-0.331,0.949-0.531,1.488-0.525c1.152,0.01,1.972,1.055,2.242,2.089c0.251,0.961,0.058,2.027-0.598,2.787
				c-0.696,0.806-1.629,1.079-2.618,1.347c-0.305,0.083-0.308,0.539,0,0.62c1.002,0.266,2.049-0.215,2.794-0.874
				c0.768-0.678,1.226-1.629,1.314-2.645C176.3,147.897,174.692,145.545,172.402,145.958z"/>
		</g>
	</g>
	<g>
		<polygon style="fill:#E95231;" points="336.373,403.533 318.335,387.082 310.834,389.436 328.871,405.888 		"/>
		<polygon style="fill:#E95231;" points="336.631,404.297 329.117,406.655 324.232,430.586 331.745,428.228 		"/>
		<polygon style="fill:#E98B31;" points="353.338,361.342 345.979,363.652 336.693,384.154 343.348,383.401 		"/>
		<polygon style="fill:#E95231;" points="354.123,416.473 348.432,419.711 367.829,430.703 375.168,428.399 		"/>
		<path style="fill:#1D2A35;" d="M367.903,431.524l8.392-2.634c0.035-0.011,0.063-0.032,0.092-0.05
			c0.008-0.005,0.017-0.003,0.024-0.009c0.003-0.002,0.003-0.006,0.006-0.008c0.057-0.043,0.098-0.098,0.125-0.161
			c0.004-0.01,0.005-0.019,0.009-0.029c0.019-0.056,0.024-0.116,0.016-0.178c-0.001-0.01,0.005-0.02,0.003-0.03l-5.065-24.602
			l18.53-16.956c0.116-0.107,0.158-0.27,0.111-0.422c-0.048-0.15-0.181-0.258-0.338-0.276l-24.962-2.786l-10.4-22.863
			c-0.005-0.011-0.017-0.016-0.023-0.026c-0.028-0.049-0.063-0.09-0.107-0.123c-0.012-0.009-0.021-0.019-0.034-0.027
			c-0.057-0.034-0.121-0.053-0.189-0.056c-0.006,0-0.01-0.005-0.015-0.005c-0.012,0-0.021,0.009-0.032,0.01
			c-0.03,0.002-0.059,0-0.088,0.009l-8.392,2.634c-0.109,0.034-0.199,0.113-0.247,0.218l-9.559,21.105l-17.369,1.967
			c-0.01,0.001-0.017,0.009-0.026,0.011c-0.017,0.003-0.033,0-0.049,0.005l-8.392,2.634c-0.138,0.043-0.242,0.156-0.273,0.297
			c-0.012,0.053-0.012,0.108-0.003,0.16c0.016,0.085,0.059,0.164,0.125,0.225l18.557,16.926l-5.024,24.609
			c-0.029,0.14,0.018,0.284,0.125,0.38c0.106,0.096,0.255,0.128,0.391,0.085l8.392-2.634c0.019-0.006,0.034-0.019,0.051-0.028
			c0.009-0.004,0.019-0.002,0.027-0.007l15.323-8.716l19.968,11.315C367.681,431.546,367.796,431.558,367.903,431.524z
			 M337.557,403.788c0.001-0.003-0.001-0.006-0.001-0.01c0.011-0.062,0.012-0.126-0.01-0.192c0-0.001-0.001-0.001-0.001-0.002
			c-0.001-0.004-0.005-0.008-0.007-0.012c-0.02-0.057-0.053-0.104-0.093-0.145c-0.005-0.005-0.006-0.013-0.012-0.018l-18.071-16.481
			l24.303-2.752c0.141-0.016,0.263-0.105,0.322-0.234l10.09-22.279l10.127,22.263c0.059,0.129,0.181,0.217,0.322,0.233l24.307,2.712
			l-18.043,16.511c-0.105,0.096-0.147,0.236-0.123,0.379l4.931,23.956l-21.278-12.059c-0.124-0.069-0.275-0.07-0.398,0.001
			l-21.259,12.092L337.557,403.788z M345.979,363.652l7.36-2.31l-9.99,22.059l-6.655,0.754L345.979,363.652z M318.335,387.082
			l18.038,16.451l-7.502,2.355l-18.037-16.451L318.335,387.082z M324.232,430.586l4.886-23.93l7.514-2.358l-4.886,23.931
			L324.232,430.586z M348.432,419.711l5.691-3.237l21.045,11.926l-7.339,2.304L348.432,419.711z"/>
		<path style="fill:#FFC353;" d="M353.924,415.66c0.123-0.071,0.274-0.07,0.398-0.001l21.278,12.059l-4.931-23.956
			c-0.024-0.143,0.018-0.283,0.123-0.379l18.043-16.511l-24.307-2.712c-0.141-0.016-0.263-0.105-0.322-0.233l-10.127-22.263
			l-10.09,22.279c-0.059,0.129-0.181,0.218-0.322,0.234l-24.303,2.752l18.071,16.481c0.006,0.005,0.007,0.013,0.012,0.018
			c0.04,0.04,0.073,0.088,0.093,0.145c0.002,0.004,0.005,0.008,0.007,0.012c0,0.001,0.001,0.001,0.001,0.002
			c0.022,0.065,0.021,0.13,0.01,0.192c-0.001,0.003,0.001,0.007,0.001,0.01l-4.892,23.964L353.924,415.66z"/>
		<path style="fill:#E98B31;" d="M375.6,427.717l-1.27-6.171c-10.935-1.784-21.274-7.135-28.986-15.097
			c-5.717-5.903-9.954-13.206-12.35-21.064l-13.631,1.544l18.071,16.481c0.006,0.005,0.007,0.013,0.012,0.018
			c0.04,0.04,0.073,0.088,0.093,0.145c0.002,0.004,0.005,0.008,0.007,0.012c0,0.001,0.001,0.001,0.001,0.002
			c0.022,0.065,0.021,0.13,0.01,0.192c-0.001,0.003,0.001,0.007,0.001,0.01l-4.892,23.964l21.259-12.092
			c0.123-0.071,0.274-0.07,0.398-0.001L375.6,427.717z"/>
		<g>
			<path style="fill:#FFFFFF;" d="M354.079,361.663l-1.478,3.264c2.645,5.278,5.866,10.264,9.671,14.746L354.079,361.663z"/>
			<path style="fill:#FFFFFF;" d="M388.835,386.871l-22.122-2.468c0.754,0.726,1.52,1.44,2.312,2.128
				c3.531,3.066,7.453,5.71,11.631,7.826L388.835,386.871z"/>
		</g>
		<path style="fill:#FF586B;" d="M344.024,394.58c0.066,1.012-1.208,1.919-2.846,2.026c-1.637,0.106-3.018-0.628-3.084-1.64
			c-0.066-1.012,1.208-1.919,2.846-2.026C342.577,392.833,343.958,393.567,344.024,394.58z"/>
		<path style="fill:#FF586B;" d="M370.53,394.971c-0.089,1.011-1.485,1.714-3.12,1.571c-1.634-0.143-2.888-1.079-2.799-2.089
			c0.089-1.011,1.485-1.714,3.12-1.571C369.365,393.025,370.618,393.96,370.53,394.971z"/>
		<path style="fill:#E98B31;" d="M354.08,394.863c-0.632,0.239-1.302,0.431-1.822,0.863c-0.095,0.079-0.186,0.169-0.23,0.284
			c-0.107,0.276,0.092,0.574,0.311,0.773c1.013,0.919,2.746,0.885,3.722-0.074c0.536-0.526,1.723-2.406,0.804-3.025
			c-0.407-0.274-0.756-0.067-1.088,0.182C355.228,394.279,354.733,394.616,354.08,394.863z"/>
		<path style="fill:#1D2A35;" d="M354.407,390.908c-0.456,0.063-0.883,0.264-1.234,0.56c-0.255,0.215-0.747,0.676-0.536,1.045
			c0.04,0.07,0.109,0.094,0.185,0.085c0.204-0.026,0.3-0.199,0.414-0.347c0.114-0.148,0.253-0.282,0.405-0.391
			c0.35-0.251,0.779-0.394,1.211-0.372c0.924,0.047,1.546,0.912,1.728,1.75c0.169,0.779-0.022,1.628-0.574,2.216
			c-0.585,0.623-1.342,0.811-2.145,0.993c-0.247,0.056-0.265,0.422-0.021,0.498c0.795,0.247,1.651-0.104,2.27-0.607
			c0.638-0.518,1.038-1.266,1.142-2.078C357.468,392.593,356.257,390.653,354.407,390.908z"/>
		<g>
			<path style="fill:#1D2A35;" d="M343.84,392.475c-0.12,0-0.24-0.042-0.336-0.128c-0.206-0.186-0.223-0.503-0.037-0.71
				c1.21-1.343,3.658-2.23,5.074-2.654c-1.265-0.767-2.941-1.515-2.962-1.524c-0.253-0.113-0.368-0.41-0.255-0.663
				c0.114-0.254,0.41-0.367,0.663-0.255c0.114,0.051,2.803,1.251,4.053,2.25c0.15,0.121,0.219,0.316,0.176,0.504
				c-0.043,0.188-0.189,0.335-0.378,0.378c-0.04,0.01-4.112,0.958-5.623,2.637C344.114,392.419,343.977,392.475,343.84,392.475z"/>
		</g>
		<g>
			<path style="fill:#1D2A35;" d="M363.861,392.415c-0.144,0-0.287-0.062-0.387-0.181c-1.595-1.924-4.767-2.123-4.798-2.125
				c-0.189-0.011-0.356-0.126-0.432-0.3c-0.076-0.174-0.048-0.375,0.072-0.521c1.208-1.462,3.586-2.631,3.687-2.68
				c0.247-0.12,0.548-0.019,0.671,0.232c0.122,0.249,0.019,0.549-0.232,0.671c-0.018,0.009-1.533,0.755-2.67,1.733
				c1.214,0.229,3.21,0.823,4.475,2.349c0.178,0.214,0.147,0.531-0.066,0.707C364.087,392.377,363.974,392.415,363.861,392.415z"/>
		</g>
		<g>
			<path style="fill:#1D2A35;" d="M355.204,402.553c-0.113,0-0.226-0.003-0.342-0.007c-6.872-0.281-8.285-7.192-8.299-7.262
				c-0.052-0.272,0.126-0.535,0.397-0.587c0.275-0.057,0.535,0.125,0.589,0.396c0.049,0.253,1.285,6.202,7.353,6.449
				c0.1,0.005,0.198,0.007,0.294,0.007c5.118,0,5.714-5.618,5.737-5.861c0.027-0.276,0.28-0.481,0.547-0.452
				c0.276,0.026,0.479,0.27,0.453,0.545C361.928,395.85,361.235,402.553,355.204,402.553z"/>
		</g>
		<g>
			<path style="fill:#1D2A35;" d="M345.539,395.687c-0.108,0-0.217-0.034-0.308-0.106c-0.216-0.169-0.258-0.479-0.091-0.696
				c0.423-0.555,1.706-1.362,3.536-0.449c0.248,0.123,0.348,0.426,0.225,0.674c-0.125,0.248-0.424,0.351-0.674,0.225
				c-1.496-0.746-2.214,0.07-2.292,0.164C345.835,395.623,345.687,395.687,345.539,395.687z"/>
		</g>
		<g>
			<path style="fill:#1D2A35;" d="M363.072,396.419c-0.117,0-0.234-0.04-0.33-0.124c-1.17-1.015-2.524-0.694-2.581-0.681
				c-0.267,0.071-0.542-0.096-0.609-0.363c-0.068-0.269,0.092-0.54,0.359-0.61c0.079-0.019,1.912-0.477,3.49,0.896
				c0.209,0.181,0.231,0.498,0.049,0.708C363.352,396.36,363.212,396.419,363.072,396.419z"/>
		</g>
	</g>
	<g>
		<g>
			<path style="fill:#FFC353;" d="M345.29,291.287c-3.224,2.587-35.25,27.993-79.821,53.058
				c-41.951,23.592-103.67,51.563-162.487,53.075c9.826,1.905,33.838,5.093,68.59,0.103c42.486-6.101,110.162-26.023,191.403-86.257
				l-1.849-16.335L345.29,291.287z"/>
			<path style="fill:#1D2A35;" d="M364.244,311.352l-1.932-17.07c-0.028-0.223-0.183-0.399-0.404-0.451l-16.499-3.796
				c-0.19-0.044-0.401,0.01-0.567,0.144c-0.326,0.266-33.212,26.89-79.902,53.144c-43.059,24.212-107.001,53.053-167.089,52.948
				c-0.304,0-0.592,0.222-0.672,0.521c-0.052,0.193-0.008,0.38,0.105,0.511c0.063,0.073,0.146,0.127,0.247,0.156
				c0.271,0.08,27.658,7.912,73.988,1.273c42.716-6.121,110.778-26.145,192.442-86.774
				C364.159,311.812,364.268,311.576,364.244,311.352z M171.573,397.522c-34.752,4.99-58.764,1.802-68.59-0.103
				c58.817-1.512,120.536-29.483,162.487-53.075c44.571-25.065,76.596-50.471,79.821-53.058l15.836,3.643l1.849,16.335
				C281.735,371.499,214.059,391.421,171.573,397.522z"/>
			<path style="fill:#E98B31;" d="M361.127,294.93l-15.836-3.643c-3.224,2.587-35.25,27.993-79.821,53.058
				c-10.932,6.148-23.215,12.59-36.43,18.787c9.332-2.883,18.664-5.766,27.996-8.649c-7.536,5.554-14.915,11.333-22.119,17.325
				c14.047-3.777,27.882-8.901,41.231-15.27c-3.758,2.894-7.516,5.789-11.275,8.683c5.563-1.1,11.147-2.299,16.722-3.625
				c25.044-12.44,52.339-28.798,81.38-50.33L361.127,294.93z"/>
			<path style="fill:#E95231;" d="M361.127,294.93l-15.836-3.643c-2.141,1.717-16.986,13.497-39.76,28.554
				c-1.383,1.352-2.767,2.703-4.15,4.055c5.37-1.23,10.74-2.461,16.109-3.691c-10.013,8.788-20.888,16.596-32.358,23.234
				c13.788-2.612,27.444-7.07,40.456-13.208c-3.749,3.954-8.05,7.412-12.704,10.214c2.99-0.415,5.994-0.837,9-1.286
				c13.247-8.172,26.961-17.416,41.093-27.893L361.127,294.93z"/>
			<path style="fill:#FFFFFF;" d="M102.982,397.419c9.35,1.812,31.552,4.782,63.621,0.766c-6.605-0.748-13.202-1.523-19.787-2.35
				c7.192-2.791,14.286-5.914,21.259-9.338C146.74,392.701,124.665,396.862,102.982,397.419z"/>
		</g>
		<g>
			<polygon style="fill:#E95231;" points="365.415,289.211 334.655,282.83 327.895,290.358 358.655,296.739 			"/>
			<polygon style="fill:#E95231;" points="366.202,289.887 359.431,297.427 369.72,327.124 376.491,319.585 			"/>
			<polygon style="fill:#E98B31;" points="356.522,231.374 349.889,238.759 353.058,267.547 359.931,262.348 			"/>
			<polygon style="fill:#E95231;" points="393.554,291.893 389.377,299.21 418.061,298.656 424.675,291.291 			"/>
			<path style="fill:#1D2A35;" d="M418.682,299.516l7.563-8.421c0.031-0.035,0.049-0.077,0.069-0.116
				c0.005-0.01,0.017-0.015,0.021-0.025c0.002-0.004,0-0.008,0.001-0.012c0.035-0.084,0.044-0.172,0.032-0.26
				c-0.002-0.013-0.007-0.025-0.009-0.038c-0.016-0.075-0.049-0.144-0.1-0.208c-0.008-0.011-0.008-0.025-0.017-0.035l-21.745-23.913
				l9.392-30.926c0.059-0.195-0.002-0.402-0.154-0.54c-0.152-0.135-0.37-0.167-0.555-0.084l-29.462,13.29l-26.511-18.489
				c-0.013-0.009-0.029-0.007-0.042-0.014c-0.063-0.036-0.129-0.058-0.198-0.066c-0.019-0.002-0.036-0.008-0.055-0.008
				c-0.086,0-0.169,0.021-0.246,0.062c-0.006,0.003-0.014,0.001-0.02,0.005c-0.013,0.008-0.017,0.023-0.03,0.032
				c-0.031,0.022-0.065,0.039-0.092,0.068l-7.562,8.421c-0.098,0.11-0.146,0.256-0.13,0.403l3.262,29.635l-17.938,13.571
				c-0.01,0.008-0.012,0.021-0.022,0.029c-0.017,0.014-0.036,0.022-0.051,0.038l-7.563,8.421c-0.125,0.138-0.165,0.332-0.107,0.508
				c0.022,0.067,0.057,0.128,0.102,0.179c0.073,0.084,0.173,0.143,0.286,0.168l31.647,6.565l10.581,30.539
				c0.06,0.174,0.207,0.302,0.387,0.339c0.181,0.036,0.366-0.026,0.489-0.162l7.563-8.421c0.017-0.019,0.024-0.043,0.038-0.064
				c0.007-0.01,0.02-0.014,0.026-0.025l11.246-19.7l29.529-0.572C418.45,299.686,418.587,299.624,418.682,299.516z M366.894,288.716
				c-0.001-0.004-0.005-0.006-0.007-0.01c-0.028-0.076-0.07-0.148-0.137-0.206c-0.001-0.001-0.002-0.001-0.002-0.001
				c-0.004-0.004-0.011-0.005-0.015-0.009c-0.06-0.049-0.127-0.081-0.198-0.099c-0.009-0.003-0.016-0.011-0.025-0.013l-30.816-6.392
				l25.099-18.988c0.146-0.111,0.223-0.289,0.203-0.471l-3.444-31.283l25.815,18.004c0.149,0.104,0.343,0.122,0.51,0.047
				l28.688-12.942l-9.144,30.114c-0.053,0.175-0.008,0.357,0.112,0.5l21.174,23.286l-31.466,0.608
				c-0.183,0.005-0.35,0.104-0.44,0.262l-15.603,27.332L366.894,288.716z M349.889,238.759l6.632-7.385l3.41,30.974l-6.873,5.2
				L349.889,238.759z M334.655,282.83l30.76,6.381l-6.76,7.528l-30.76-6.381L334.655,282.83z M369.72,327.124l-10.289-29.697
				l6.771-7.54l10.288,29.698L369.72,327.124z M389.377,299.21l4.177-7.317l31.121-0.602l-6.614,7.365L389.377,299.21z"/>
			<path style="fill:#FFC353;" d="M392.8,291.123c0.09-0.159,0.258-0.258,0.44-0.262l31.466-0.608l-21.174-23.286
				c-0.12-0.143-0.166-0.325-0.112-0.5l9.144-30.114l-28.688,12.942c-0.166,0.075-0.36,0.057-0.51-0.047l-25.815-18.004
				l3.444,31.283c0.02,0.182-0.057,0.36-0.203,0.471l-25.099,18.988l30.816,6.392c0.01,0.002,0.016,0.01,0.025,0.013
				c0.071,0.018,0.138,0.05,0.198,0.099c0.005,0.004,0.011,0.005,0.015,0.009c0.001,0.001,0.002,0.001,0.002,0.001
				c0.067,0.058,0.108,0.13,0.137,0.206c0.001,0.004,0.005,0.006,0.007,0.01l10.303,29.738L392.8,291.123z"/>
			<path style="fill:#E98B31;" d="M424.707,290.253l-5.454-5.999c-13.276,5.198-28.232,6.056-41.992,2.3
				c-10.202-2.785-19.682-8.09-27.49-15.218l-14.077,10.65l30.816,6.392c0.01,0.002,0.016,0.01,0.025,0.013
				c0.071,0.018,0.138,0.05,0.198,0.099c0.005,0.004,0.011,0.005,0.015,0.009c0.001,0.001,0.002,0.001,0.002,0.001
				c0.067,0.058,0.108,0.13,0.137,0.206c0.001,0.004,0.005,0.006,0.007,0.01l10.303,29.738l15.603-27.332
				c0.09-0.159,0.258-0.258,0.44-0.262L424.707,290.253z"/>
			<g>
				<path style="fill:#FFFFFF;" d="M357.552,231.244l0.505,4.583c6.391,4.108,13.227,7.515,20.378,9.981L357.552,231.244z"/>
				<path style="fill:#FFFFFF;" d="M412.565,236.353l-26.11,11.779c1.311,0.309,2.628,0.597,3.955,0.839
					c5.92,1.078,11.997,1.432,18.01,1.034L412.565,236.353z"/>
			</g>
			<path style="fill:#1D2A35;" d="M375.974,261.992l15.379,14.314c0.718,0.669,0.677,1.822-0.098,2.425
				c-2.81,2.187-9.438,6.045-15.959,0.292c-6.479-5.716-3.611-13.267-1.814-16.627C373.974,261.475,375.21,261.281,375.974,261.992z
				"/>
			<path style="fill:#FF586B;" d="M375.296,279.023c2.805,2.475,5.629,3.165,8.162,2.981c-0.056-0.167-0.11-0.336-0.168-0.501
				c-0.546-1.545-1.161-3.084-2.094-4.432c-1.989-2.874-5.317-4.648-8.761-5.246c-0.356-0.061-0.716-0.104-1.077-0.135
				C371.629,274.171,372.711,276.742,375.296,279.023z"/>
			<path style="fill:#FF586B;" d="M401.602,280.916c-1.077,1.161-3.473,0.69-5.351-1.053c-1.878-1.742-2.527-4.096-1.449-5.257
				s3.473-0.69,5.351,1.053C402.031,277.401,402.679,279.755,401.602,280.916z"/>
			<path style="fill:#FF586B;" d="M375.936,258.264c-1.077,1.161-3.473,0.69-5.351-1.053c-1.878-1.743-2.527-4.096-1.449-5.257
				c1.077-1.161,3.473-0.69,5.351,1.053C376.364,254.75,377.013,257.103,375.936,258.264z"/>
			<path style="fill:#E98B31;" d="M386.48,265.119c-0.777-0.323-1.549-0.722-2.389-0.775c-0.153-0.01-0.313-0.006-0.451,0.06
				c-0.332,0.159-0.408,0.599-0.379,0.967c0.133,1.698,1.734,3.148,3.437,3.113c0.936-0.019,3.618-0.709,3.314-2.056
				c-0.135-0.597-0.628-0.707-1.141-0.764C388.02,265.57,387.283,265.452,386.48,265.119z"/>
			<path style="fill:#1D2A35;" d="M390.156,261.812c-0.467-0.333-1.027-0.515-1.597-0.547c-0.415-0.023-1.255-0.026-1.379,0.49
				c-0.023,0.098,0.018,0.178,0.096,0.235c0.207,0.151,0.442,0.076,0.672,0.039c0.23-0.037,0.471-0.039,0.701-0.008
				c0.532,0.071,1.043,0.309,1.415,0.698c0.797,0.832,0.623,2.148,0.071,3.063c-0.513,0.85-1.41,1.457-2.413,1.518
				c-1.063,0.065-1.91-0.412-2.793-0.933c-0.272-0.16-0.6,0.156-0.444,0.433c0.51,0.903,1.585,1.316,2.577,1.389
				c1.022,0.075,2.022-0.261,2.811-0.908C391.491,265.955,392.05,263.162,390.156,261.812z"/>
			<g>
				<path style="fill:#1D2A35;" d="M384.487,261.557c-0.12,0-0.239-0.042-0.335-0.129c-0.207-0.184-0.225-0.502-0.04-0.708
					c0.029-0.032,2.829-3.192,2.634-5.398c-0.048-0.533-0.273-0.949-0.688-1.274c-1.967-1.537-5.546,2.09-6.759,3.617
					c-0.132,0.168-0.353,0.234-0.559,0.162c-0.201-0.07-0.336-0.26-0.336-0.474v-2.183c0-0.278,0.225-0.502,0.502-0.502
					c0.277,0,0.502,0.225,0.502,0.502v0.85c1.577-1.673,4.893-4.621,7.27-2.763c0.637,0.498,0.995,1.163,1.068,1.977
					c0.234,2.638-2.758,6.012-2.886,6.155C384.761,261.5,384.624,261.557,384.487,261.557z"/>
			</g>
			<g>
				<path style="fill:#1D2A35;" d="M396.768,272.46c-0.186,0-0.36-0.104-0.446-0.273c-0.098-0.189-0.065-0.421,0.082-0.576
					c1.344-1.414,4.438-5.465,2.643-7.197c-0.38-0.365-0.814-0.526-1.358-0.502c-1.839,0.094-4.217,2.455-4.978,3.356
					c-0.178,0.213-0.495,0.238-0.707,0.06c-0.212-0.178-0.239-0.495-0.06-0.707c0.123-0.146,3.047-3.576,5.693-3.712
					c0.814-0.041,1.525,0.221,2.107,0.783c2.168,2.091-0.287,5.788-1.725,7.584l0.842-0.119c0.266-0.036,0.528,0.153,0.567,0.428
					c0.038,0.275-0.153,0.529-0.428,0.567l-2.163,0.304C396.814,272.458,396.791,272.46,396.768,272.46z"/>
			</g>
		</g>
	</g>
	<g>
		<g>
			<path style="fill:#FFC353;" d="M95.724,237.314l-8.201-1.057l-4.503,6.813c1.793,4.64,27.328,72.535,10.184,124.763
				c2.945-5.134,7.975-15.435,11.282-30.56C108.998,316.64,111.13,282.562,95.724,237.314z"/>
			<path style="fill:#1D2A35;" d="M96.573,236.693c-0.062-0.181-0.221-0.311-0.411-0.336l-8.822-1.138
				c-0.179-0.025-0.378,0.061-0.483,0.222l-4.819,7.291c-0.091,0.137-0.109,0.31-0.048,0.463
				c0.296,0.74,29.296,74.623,8.767,128.538c-0.089,0.234,0.008,0.498,0.227,0.619c0.076,0.041,0.16,0.062,0.242,0.062
				c0.154,0,0.305-0.071,0.402-0.202c0.088-0.118,8.874-12.072,13.825-34.661C110.016,316.738,112.177,282.344,96.573,236.693z
				 M83.02,243.07l4.503-6.813l8.201,1.057c15.406,45.248,13.274,79.326,8.763,99.959c-3.307,15.124-8.337,25.426-11.282,30.56
				C110.348,315.604,84.813,247.71,83.02,243.07z"/>
			<path style="fill:#FFFFFF;" d="M99.994,344.01c-0.172-2.794-0.555-5.572-1.121-8.314c-0.57,10.918-2.286,21.832-5.668,32.136
				c2.92-5.089,7.886-15.265,11.194-30.176C102.971,339.802,101.505,341.922,99.994,344.01z"/>
			<path style="fill:#E98B31;" d="M87.523,236.257l-4.503,6.813c0.523,1.353,3.066,8.093,5.979,18.248
				c1.811,2.574,3.375,5.323,4.655,8.199c0.754-2.522,1.067-5.175,0.923-7.803c3.746,6.608,6.852,13.579,9.26,20.783
				c-0.326-8.447-1.075-16.878-2.234-25.253c-1.588-6.379-3.527-13.022-5.879-19.93L87.523,236.257z"/>
		</g>
		<g>
			<polygon style="fill:#E98B31;" points="79.764,206.028 76.181,208.533 74.501,222.537 77.969,220.994 			"/>
			<polygon style="fill:#E95231;" points="77.329,235.051 63.427,228.615 59.691,231.226 73.594,237.661 			"/>
			<polygon style="fill:#E95231;" points="91.434,239.818 88.918,242.531 102.583,245.438 106.145,242.949 			"/>
			<polygon style="fill:#E95231;" points="77.922,235.862 74.176,238.48 75.776,253.73 79.522,251.11 			"/>
			<path style="fill:#FFC353;" d="M91.049,217.559l-10.286-11.428l-1.831,15.266c-0.021,0.176-0.132,0.327-0.294,0.399
				l-14.047,6.251l13.952,6.459c0.008,0.004,0.012,0.012,0.02,0.017c0.063,0.033,0.119,0.077,0.165,0.137
				c0.004,0.005,0.01,0.008,0.013,0.013c0.001,0.001,0.002,0.001,0.003,0.002c0.047,0.067,0.069,0.141,0.08,0.216
				c0.001,0.007,0.006,0.012,0.007,0.019l1.605,15.29l10.455-11.274c0.12-0.129,0.294-0.185,0.473-0.15l15.038,3.199l-7.492-13.427
				c-0.086-0.154-0.085-0.342,0.004-0.495l7.69-13.314l-15.084,2.975C91.346,217.75,91.168,217.691,91.049,217.559z"/>
			<path style="fill:#1D2A35;" d="M108,213.741c-0.115-0.161-0.314-0.243-0.505-0.2l-15.889,3.134L80.77,204.637
				c-0.01-0.011-0.026-0.013-0.037-0.023c-0.052-0.048-0.109-0.084-0.173-0.106c-0.018-0.006-0.032-0.015-0.05-0.019
				c-0.081-0.019-0.164-0.017-0.246,0.005c-0.006,0.002-0.013-0.001-0.019,0.001c-0.013,0.004-0.02,0.017-0.033,0.022
				c-0.035,0.014-0.071,0.023-0.103,0.045l-4.687,3.277c-0.118,0.082-0.194,0.21-0.211,0.352l-1.778,14.822l-10.261,4.567
				c-0.011,0.005-0.016,0.017-0.026,0.022c-0.019,0.01-0.039,0.013-0.057,0.025l-4.688,3.277c-0.148,0.103-0.229,0.278-0.213,0.456
				c0.016,0.179,0.126,0.336,0.289,0.412l14.699,6.803l1.69,16.107c0.019,0.178,0.129,0.331,0.29,0.405
				c0.067,0.03,0.138,0.045,0.209,0.045c0.101,0,0.202-0.031,0.287-0.09l4.687-3.277c0.017-0.012,0.025-0.029,0.04-0.042
				c0.012-0.011,0.029-0.016,0.04-0.029l7.702-8.305l14.464,3.077c0.035,0.007,0.07,0.011,0.105,0.011
				c0.102,0,0.203-0.031,0.287-0.09l4.688-3.277c0.036-0.025,0.059-0.059,0.087-0.091c0.009-0.01,0.022-0.012,0.03-0.023
				c0.003-0.004,0.002-0.01,0.005-0.014c0.049-0.071,0.076-0.15,0.085-0.233c0.002-0.019-0.001-0.036-0.001-0.054
				c0-0.07-0.016-0.138-0.046-0.204c-0.005-0.012-0.002-0.025-0.008-0.037l-7.892-14.145l8.1-14.025
				C108.126,214.113,108.115,213.902,108,213.741z M98.915,228.054c-0.089,0.153-0.09,0.341-0.004,0.495l7.492,13.427l-15.038-3.199
				c-0.179-0.035-0.353,0.021-0.473,0.15L80.437,250.2l-1.605-15.29c-0.001-0.007-0.006-0.012-0.007-0.019
				c-0.011-0.076-0.033-0.15-0.08-0.216c-0.001-0.001-0.002-0.001-0.003-0.002c-0.003-0.005-0.009-0.008-0.013-0.013
				c-0.046-0.06-0.102-0.104-0.165-0.137c-0.008-0.004-0.012-0.013-0.02-0.017l-13.952-6.459l14.047-6.251
				c0.162-0.073,0.274-0.224,0.294-0.399l1.831-15.266l10.286,11.428c0.119,0.131,0.297,0.191,0.471,0.156l15.084-2.975
				L98.915,228.054z M76.181,208.533l3.584-2.505l-1.796,14.966l-3.468,1.543L76.181,208.533z M63.427,228.615l13.902,6.436
				l-3.734,2.61l-13.903-6.435L63.427,228.615z M74.176,238.48l3.746-2.618l1.6,15.249l-3.746,2.62L74.176,238.48z M102.583,245.438
				l-13.665-2.908l2.516-2.712l14.711,3.131L102.583,245.438z"/>
			<path style="fill:#E98B31;" d="M90.653,235.425c-7.598-1.318-14.789-4.778-20.646-9.788l-5.415,2.41l13.952,6.459
				c0.008,0.004,0.012,0.012,0.02,0.017c0.063,0.033,0.119,0.077,0.165,0.137c0.004,0.005,0.01,0.008,0.013,0.013
				c0.001,0.001,0.002,0.001,0.003,0.002c0.047,0.067,0.069,0.141,0.08,0.216c0.001,0.007,0.006,0.012,0.007,0.019l1.605,15.29
				l10.455-11.274c0.12-0.129,0.294-0.185,0.473-0.15l15.038,3.199l-3.481-6.24C98.843,236.216,94.7,236.127,90.653,235.425z"/>
			<g>
				<path style="fill:#FFFFFF;" d="M98.828,218.475c1.691,0.349,3.401,0.642,5.12,0.865l2.656-4.6l-12.732,2.511
					C95.505,217.731,97.163,218.131,98.828,218.475z"/>
				<path style="fill:#FFFFFF;" d="M80.763,206.131l-0.393,3.277c1.872,2.089,4.176,3.808,6.662,5.127
					c0.74,0.393,1.498,0.745,2.265,1.076L80.763,206.131z"/>
			</g>
			<g>
				<path style="fill:#1D2A35;" d="M83.13,227.861c-0.248,0-0.499-0.045-0.753-0.135c-1.175-0.416-2.127-1.759-2.652-2.653
					l-0.622,1.095c-0.137,0.241-0.445,0.327-0.685,0.188c-0.241-0.136-0.326-0.443-0.188-0.685l1.073-1.889
					c0.093-0.163,0.256-0.272,0.459-0.253c0.188,0.008,0.356,0.122,0.434,0.293c0.313,0.686,1.377,2.554,2.517,2.957
					c0.325,0.115,0.63,0.099,0.934-0.052c1.748-0.872,0.488-3.919,0.475-3.951c-0.107-0.255,0.013-0.549,0.268-0.657
					c0.256-0.111,0.549,0.011,0.657,0.266c0.069,0.161,1.639,3.948-0.951,5.241C83.781,227.783,83.458,227.861,83.13,227.861z"/>
			</g>
			<g>
				<path style="fill:#1D2A35;" d="M90.559,225.773c-0.298,0-0.595-0.075-0.879-0.225c-1.504-0.793-2.31-3.485-2.396-3.789
					c-0.077-0.267,0.077-0.544,0.344-0.621c0.269-0.08,0.545,0.077,0.621,0.344c0.205,0.713,0.946,2.675,1.901,3.178
					c0.228,0.121,0.443,0.141,0.673,0.064c1.289-0.43,1.06-3.218,0.879-4.161c-0.034-0.182,0.032-0.367,0.176-0.484
					c0.142-0.118,0.337-0.147,0.509-0.076l2.063,0.849c0.256,0.105,0.379,0.398,0.273,0.655c-0.105,0.257-0.397,0.382-0.655,0.273
					l-1.259-0.518c0.121,1.354,0.085,3.829-1.666,4.414C90.948,225.742,90.753,225.773,90.559,225.773z"/>
			</g>
			<g>
				<path style="fill:#1D2A35;" d="M80.486,232.801c-0.227,0-0.432-0.154-0.488-0.383c-0.466-1.924,0.515-2.853,1.098-3.075
					c0.258-0.098,0.549,0.029,0.647,0.29c0.098,0.256-0.028,0.543-0.283,0.644c-0.095,0.042-0.846,0.421-0.486,1.903
					c0.065,0.27-0.101,0.541-0.37,0.607C80.565,232.796,80.526,232.801,80.486,232.801z"/>
			</g>
			<g>
				<path style="fill:#1D2A35;" d="M87.149,234.286c-4.268,0-6.778-2.966-6.808-3.002c-0.177-0.214-0.146-0.529,0.067-0.706
					c0.214-0.177,0.53-0.148,0.707,0.066c0.133,0.16,3.331,3.897,8.746,2.207c5.341-1.669,4.889-6.364,4.868-6.563
					c-0.03-0.275,0.168-0.524,0.443-0.554c0.269-0.024,0.524,0.166,0.555,0.441c0.006,0.057,0.582,5.712-5.566,7.635
					C89.08,234.147,88.073,234.286,87.149,234.286z"/>
			</g>
			<g>
				<path style="fill:#1D2A35;" d="M96.684,226.856c-0.113,0-0.227-0.037-0.32-0.115c-1.131-0.936-2.456-0.378-2.511-0.352
					c-0.256,0.11-0.551-0.006-0.661-0.259c-0.111-0.253,0.003-0.547,0.255-0.66c0.077-0.034,1.941-0.838,3.557,0.496
					c0.214,0.177,0.244,0.493,0.068,0.707C96.971,226.794,96.828,226.856,96.684,226.856z"/>
			</g>
			<path style="fill:#E98B31;" d="M87.14,229.306c-0.581,0.251-1.194,0.586-1.427,1.174c-0.087,0.219-0.111,0.473-0.015,0.688
				c0.069,0.153,0.193,0.275,0.325,0.379c0.368,0.292,0.818,0.48,1.285,0.526c0.83,0.081,1.674-0.305,2.217-0.939
				c0.484-0.565,1.341-2.571,0.448-3.13c-0.388-0.242-0.904,0.091-1.215,0.308C88.209,228.696,87.769,229.034,87.14,229.306z"/>
			<path style="fill:#1D2A35;" d="M89.432,226.227c-0.679-0.378-1.491-0.136-2.118,0.239c-0.341,0.204-0.658,0.48-0.835,0.842
				c-0.171,0.349-0.31,0.787-0.043,1.117c0.083,0.103,0.239,0.053,0.302-0.039c0.105-0.154,0.123-0.311,0.192-0.48
				c0.055-0.136,0.139-0.257,0.233-0.368c0.22-0.257,0.483-0.444,0.793-0.578c0.289-0.125,0.646-0.248,0.958-0.141
				c0.258,0.088,0.454,0.302,0.572,0.542c0.281,0.577,0.179,1.387-0.106,1.945c-0.305,0.596-0.843,0.872-1.45,1.089
				c-0.271,0.097-0.287,0.476,0,0.567c0.721,0.23,1.436-0.221,1.867-0.78c0.459-0.595,0.661-1.38,0.621-2.126
				C90.38,227.336,90.089,226.594,89.432,226.227z"/>
			<path style="fill:#FF586B;" d="M97.772,222.648c0.225,0.655-0.414,1.468-1.428,1.817c-1.014,0.349-2.018,0.101-2.244-0.554
				c-0.225-0.655,0.414-1.468,1.428-1.817C96.542,221.745,97.547,221.993,97.772,222.648z"/>
			<path style="fill:#FF586B;" d="M80.057,228.149c0.225,0.655-0.414,1.468-1.428,1.817c-1.014,0.349-2.018,0.101-2.244-0.554
				c-0.225-0.655,0.414-1.468,1.428-1.817C78.827,227.246,79.832,227.494,80.057,228.149z"/>
		</g>
	</g>
	<g>
		<g>
			<path style="fill:#FFFFFF;" d="M469.166,83.953c-0.116,0.023-0.243-0.004-0.344-0.075c-0.1-0.071-0.167-0.178-0.185-0.299
				c-0.011-0.072-1.166-7.178-5.501-9.271c-2.119-1.021-4.691-0.686-7.646,0.992c-0.136,0.078-0.302,0.077-0.438,0.004
				c-0.137-0.074-0.226-0.214-0.236-0.369c-0.022-0.333-0.671-8.179-12.584-8.179c-11.94,0-13.094,16.097-13.104,16.26
				c-0.009,0.135-0.077,0.258-0.187,0.338c-0.11,0.08-0.249,0.105-0.379,0.071c-0.044-0.011-4.437-1.141-6.7,0.668
				c-0.946,0.758-1.396,1.959-1.336,3.572c0.064,1.736,0.622,2.982,1.657,3.7c2.174,1.507,5.794,0.331,5.83,0.319
				c0.131-0.041,0.27-0.025,0.383,0.047c0.115,0.072,0.191,0.191,0.208,0.326c0.003,0.03,0.413,3.017,2.794,4.447
				c1.788,1.073,4.237,1.032,7.286-0.121c0.052-0.019,0.106-0.029,0.16-0.029c0.145,0,0.288,0.071,0.373,0.198
				c0.037,0.054,3.726,5.37,10.023,6.296c4.413,0.648,9.068-0.976,13.824-4.828c0.093-0.076,0.213-0.109,0.331-0.098
				c0.147,0.016,14.716,1.411,16.191-7.446c0.359-2.156-0.039-3.818-1.183-4.94C475.604,82.79,469.229,83.941,469.166,83.953z"/>
			<path style="fill:#1D2A35;" d="M479.035,84.888c-2.705-2.653-8.001-2.123-9.586-1.895c-0.334-1.677-1.771-7.494-5.918-9.497
				c-2.256-1.09-4.919-0.852-7.919,0.71c-0.446-2.096-2.676-8.353-13.379-8.353c-11.503,0-13.635,13.702-13.955,16.582
				c-1.321-0.265-4.838-0.759-6.978,0.951c-1.183,0.946-1.747,2.397-1.676,4.312c0.076,2.037,0.765,3.521,2.048,4.411
				c2.042,1.415,4.974,0.872,6.133,0.574c0.235,1.02,0.98,3.298,3.121,4.589c1.971,1.186,4.577,1.213,7.754,0.075
				c0.889,1.179,4.523,5.521,10.419,6.391c0.681,0.101,1.366,0.151,2.056,0.151c4.004,0,8.143-1.694,12.334-5.053
				c1.849,0.16,15.45,1.013,16.988-8.214C480.888,88.158,480.402,86.228,479.035,84.888z M479.586,90.474
				c-1.475,8.858-16.044,7.462-16.191,7.446c-0.118-0.011-0.238,0.022-0.331,0.098c-4.757,3.852-9.411,5.476-13.824,4.828
				c-6.297-0.925-9.986-6.242-10.023-6.296c-0.085-0.126-0.228-0.198-0.373-0.198c-0.054,0-0.108,0.01-0.16,0.029
				c-3.05,1.153-5.498,1.194-7.286,0.121c-2.381-1.43-2.79-4.417-2.794-4.447c-0.018-0.134-0.094-0.253-0.208-0.326
				c-0.113-0.071-0.252-0.088-0.383-0.047c-0.036,0.012-3.656,1.188-5.83-0.319c-1.035-0.718-1.592-1.964-1.657-3.7
				c-0.06-1.613,0.39-2.814,1.336-3.572c2.263-1.809,6.656-0.678,6.7-0.668c0.131,0.034,0.269,0.01,0.379-0.071
				c0.11-0.079,0.178-0.203,0.187-0.338c0.011-0.162,1.164-16.26,13.104-16.26c11.912,0,12.562,7.846,12.584,8.179
				c0.011,0.155,0.1,0.295,0.236,0.369c0.136,0.072,0.302,0.073,0.438-0.004c2.954-1.678,5.527-2.013,7.646-0.992
				c4.335,2.092,5.49,9.199,5.501,9.271c0.019,0.121,0.086,0.228,0.185,0.299c0.101,0.071,0.228,0.098,0.344,0.075
				c0.063-0.012,6.438-1.164,9.237,1.581C479.547,86.656,479.945,88.318,479.586,90.474z"/>
			<path style="fill:#C3D8EE;" d="M469.166,83.953c-0.116,0.023-0.243-0.004-0.344-0.075c-0.1-0.071-0.167-0.178-0.185-0.299
				c-0.011-0.066-1.008-6.17-4.605-8.729c0.875,1.667,1.207,3.643,0.85,5.497c-0.652,3.389-3.358,6.207-6.612,7.356
				c-3.254,1.149-6.949,0.73-10.056-0.771c-0.828,2.65-3.485,4.613-6.261,4.628c-2.776,0.015-5.453-1.921-6.31-4.561
				c-2.58,3.053-7.291,3.653-11.017,2.208c-1.492-0.579-2.837-1.432-4.059-2.454c-0.029,0.291-0.053,0.587-0.041,0.912
				c0.064,1.736,0.622,2.982,1.657,3.7c2.174,1.507,5.794,0.331,5.83,0.319c0.131-0.041,0.27-0.025,0.383,0.047
				c0.115,0.072,0.191,0.191,0.208,0.326c0.003,0.03,0.413,3.017,2.794,4.447c1.788,1.073,4.237,1.032,7.286-0.121
				c0.052-0.019,0.106-0.029,0.16-0.029c0.145,0,0.288,0.071,0.373,0.198c0.037,0.054,3.726,5.37,10.023,6.296
				c4.413,0.648,9.068-0.976,13.824-4.828c0.093-0.076,0.213-0.109,0.331-0.098c0.147,0.016,14.716,1.411,16.191-7.446
				c0.359-2.156-0.039-3.818-1.183-4.94C475.604,82.79,469.229,83.941,469.166,83.953z"/>
			<path style="fill:#FFC353;" d="M455.49,75.3c-0.136,0.078-0.302,0.077-0.438,0.004c-0.137-0.074-0.226-0.214-0.236-0.369
				c-0.022-0.333-0.671-8.179-12.584-8.179c-11.94,0-13.094,16.097-13.104,16.26c-0.009,0.135-0.077,0.258-0.187,0.338
				c-0.11,0.08-0.249,0.105-0.379,0.071c-0.044-0.011-4.437-1.141-6.7,0.668c-0.4,0.321-0.692,0.739-0.914,1.216
				c1.011-0.487,2.182-0.694,3.312-0.654c1.867,0.066,3.66,0.702,5.419,1.331c0.971-3.414,1.97-6.889,3.919-9.856
				c1.95-2.967,5.036-5.401,8.576-5.672c2.747-0.211,5.486,0.91,7.611,2.663c2.125,1.753,3.692,4.096,4.942,6.551
				c1.129-2.775,3.631-4.808,6.438-5.896C459.481,73.611,457.584,74.111,455.49,75.3z"/>
		</g>
		<g>
			<path style="fill:#FFFFFF;" d="M454.134,433.46c-0.145,0.029-0.305-0.005-0.433-0.094c-0.125-0.089-0.21-0.224-0.233-0.376
				c-0.014-0.09-1.467-9.03-6.92-11.662c-2.665-1.285-5.901-0.863-9.618,1.247c-0.171,0.098-0.379,0.097-0.55,0.006
				c-0.172-0.093-0.284-0.269-0.297-0.464c-0.028-0.419-0.844-10.289-15.83-10.289c-15.02,0-16.471,20.25-16.485,20.454
				c-0.011,0.17-0.097,0.325-0.235,0.425c-0.139,0.101-0.313,0.132-0.477,0.089c-0.055-0.013-5.582-1.436-8.428,0.84
				c-1.19,0.953-1.755,2.465-1.68,4.493c0.081,2.184,0.782,3.751,2.084,4.654c2.734,1.896,7.289,0.416,7.334,0.402
				c0.164-0.052,0.34-0.031,0.482,0.059c0.144,0.091,0.24,0.241,0.262,0.41c0.004,0.038,0.519,3.795,3.514,5.594
				c2.249,1.349,5.33,1.298,9.166-0.152c0.066-0.024,0.133-0.037,0.201-0.037c0.183,0,0.362,0.09,0.469,0.249
				c0.047,0.068,4.687,6.756,12.608,7.92c5.552,0.816,11.407-1.227,17.39-6.074c0.117-0.095,0.268-0.138,0.416-0.123
				c0.185,0.02,18.512,1.776,20.368-9.367c0.452-2.712-0.049-4.803-1.488-6.214C462.232,431.996,454.212,433.444,454.134,433.46z"/>
			<path style="fill:#1D2A35;" d="M466.548,434.636c-3.404-3.337-10.065-2.671-12.059-2.384c-0.421-2.11-2.228-9.427-7.445-11.947
				c-2.838-1.372-6.188-1.072-9.962,0.893c-0.561-2.637-3.367-10.508-16.83-10.508c-14.471,0-17.153,17.237-17.556,20.859
				c-1.662-0.334-6.086-0.954-8.778,1.196c-1.488,1.19-2.197,3.015-2.108,5.424c0.095,2.562,0.962,4.43,2.577,5.548
				c2.569,1.78,6.258,1.098,7.715,0.722c0.295,1.283,1.233,4.149,3.926,5.773c2.479,1.493,5.758,1.526,9.754,0.094
				c1.119,1.483,5.69,6.945,13.107,8.04c0.857,0.126,1.719,0.19,2.587,0.19c5.037,0,10.244-2.131,15.516-6.356
				c2.326,0.201,19.435,1.274,21.371-10.333C468.879,438.75,468.268,436.322,466.548,434.636z M467.241,441.663
				c-1.855,11.143-20.182,9.387-20.368,9.367c-0.149-0.014-0.3,0.028-0.416,0.123c-5.983,4.846-11.838,6.889-17.39,6.074
				c-7.921-1.164-12.562-7.852-12.608-7.92c-0.108-0.159-0.286-0.249-0.469-0.249c-0.068,0-0.135,0.012-0.201,0.037
				c-3.836,1.45-6.917,1.501-9.166,0.152c-2.995-1.799-3.51-5.556-3.514-5.594c-0.022-0.169-0.118-0.319-0.262-0.41
				c-0.142-0.09-0.317-0.111-0.482-0.059c-0.046,0.014-4.6,1.495-7.334-0.402c-1.302-0.903-2.003-2.47-2.084-4.654
				c-0.075-2.029,0.491-3.54,1.68-4.493c2.846-2.276,8.373-0.853,8.428-0.84c0.164,0.043,0.339,0.012,0.477-0.089
				c0.139-0.1,0.224-0.255,0.235-0.425c0.013-0.204,1.465-20.454,16.485-20.454c14.986,0,15.802,9.87,15.83,10.289
				c0.013,0.195,0.125,0.371,0.297,0.464c0.171,0.091,0.379,0.092,0.55-0.006c3.716-2.111,6.952-2.532,9.618-1.247
				c5.453,2.632,6.906,11.572,6.92,11.662c0.023,0.152,0.108,0.287,0.233,0.376c0.128,0.089,0.287,0.123,0.433,0.094
				c0.079-0.015,8.099-1.464,11.62,1.989C467.193,436.86,467.693,438.951,467.241,441.663z"/>
			<path style="fill:#C3D8EE;" d="M454.134,433.46c-0.145,0.029-0.305-0.005-0.433-0.094c-0.125-0.089-0.21-0.224-0.233-0.376
				c-0.013-0.083-1.269-7.762-5.793-10.981c1.1,2.097,1.518,4.583,1.069,6.916c-0.821,4.263-4.224,7.809-8.318,9.253
				c-4.093,1.445-8.741,0.918-12.65-0.97c-1.042,3.333-4.384,5.803-7.876,5.822c-3.492,0.019-6.86-2.416-7.937-5.738
				c-3.246,3.841-9.172,4.595-13.86,2.777c-1.876-0.728-3.568-1.801-5.106-3.087c-0.037,0.366-0.066,0.739-0.051,1.147
				c0.081,2.184,0.782,3.751,2.084,4.654c2.734,1.896,7.289,0.416,7.334,0.402c0.164-0.052,0.34-0.031,0.482,0.059
				c0.144,0.091,0.24,0.241,0.262,0.41c0.004,0.038,0.519,3.795,3.514,5.594c2.249,1.349,5.33,1.298,9.166-0.152
				c0.066-0.024,0.133-0.037,0.201-0.037c0.183,0,0.362,0.09,0.469,0.249c0.047,0.068,4.687,6.756,12.608,7.92
				c5.552,0.816,11.407-1.227,17.39-6.074c0.117-0.095,0.268-0.138,0.416-0.123c0.185,0.02,18.512,1.776,20.368-9.367
				c0.452-2.712-0.049-4.803-1.488-6.214C462.232,431.996,454.212,433.444,454.134,433.46z"/>
			<path style="fill:#FFC353;" d="M436.93,422.575c-0.171,0.098-0.379,0.097-0.55,0.006c-0.172-0.093-0.284-0.269-0.297-0.464
				c-0.028-0.419-0.844-10.289-15.83-10.289c-15.02,0-16.471,20.25-16.485,20.454c-0.011,0.17-0.097,0.325-0.235,0.425
				c-0.139,0.101-0.313,0.132-0.477,0.089c-0.055-0.013-5.582-1.436-8.428,0.84c-0.504,0.404-0.871,0.929-1.149,1.53
				c1.272-0.613,2.745-0.873,4.166-0.823c2.348,0.083,4.604,0.883,6.816,1.674c1.222-4.295,2.478-8.666,4.93-12.398
				c2.453-3.732,6.335-6.794,10.788-7.135c3.455-0.265,6.901,1.145,9.574,3.35c2.673,2.205,4.644,5.153,6.217,8.241
				c1.42-3.491,4.568-6.049,8.099-7.417C441.95,420.449,439.563,421.079,436.93,422.575z"/>
		</g>
		<g>
			<path style="fill:#FFFFFF;" d="M67.684,105.169c0.114,0.023,0.24-0.004,0.34-0.074c0.099-0.07,0.165-0.176,0.183-0.296
				c0.011-0.071,1.154-7.102,5.443-9.173c2.097-1.011,4.642-0.679,7.565,0.981c0.134,0.077,0.299,0.076,0.433,0.004
				c0.135-0.073,0.223-0.211,0.234-0.365c0.022-0.33,0.664-8.093,12.451-8.093c11.814,0,12.955,15.928,12.966,16.088
				c0.009,0.133,0.076,0.256,0.185,0.334c0.109,0.079,0.246,0.104,0.375,0.07c0.044-0.011,4.39-1.13,6.629,0.661
				c0.936,0.75,1.381,1.939,1.321,3.534c-0.064,1.718-0.615,2.95-1.639,3.661c-2.151,1.492-5.733,0.327-5.769,0.316
				c-0.129-0.041-0.267-0.024-0.379,0.046c-0.113,0.072-0.188,0.189-0.206,0.322c-0.003,0.03-0.409,2.985-2.764,4.4
				c-1.769,1.061-4.192,1.021-7.21-0.12c-0.051-0.019-0.105-0.029-0.158-0.029c-0.144,0-0.285,0.071-0.369,0.195
				c-0.037,0.053-3.687,5.314-9.917,6.229c-4.367,0.642-8.972-0.965-13.678-4.777c-0.092-0.075-0.21-0.108-0.327-0.097
				c-0.146,0.016-14.561,1.396-16.02-7.368c-0.355-2.133,0.038-3.778,1.17-4.888C61.314,104.018,67.622,105.157,67.684,105.169z"/>
			<path style="fill:#1D2A35;" d="M56.492,111.768c1.522,9.129,14.98,8.285,16.809,8.127c4.147,3.324,8.242,5,12.204,5
				c0.683,0,1.361-0.05,2.035-0.149c5.834-0.861,9.429-5.158,10.309-6.324c3.143,1.126,5.722,1.1,7.672-0.074
				c2.118-1.277,2.856-3.532,3.088-4.541c1.146,0.295,4.047,0.832,6.068-0.568c1.27-0.88,1.952-2.349,2.027-4.364
				c0.07-1.895-0.488-3.331-1.658-4.266c-2.118-1.692-5.597-1.204-6.904-0.941c-0.317-2.849-2.427-16.407-13.808-16.407
				c-10.589,0-12.796,6.191-13.237,8.265c-2.969-1.546-5.604-1.782-7.835-0.703c-4.103,1.982-5.525,7.738-5.856,9.397
				c-1.569-0.226-6.808-0.75-9.485,1.875C56.567,107.42,56.086,109.33,56.492,111.768z M58.544,106.733
				c2.77-2.715,9.077-1.576,9.139-1.564c0.114,0.023,0.24-0.004,0.34-0.074c0.099-0.07,0.165-0.176,0.183-0.296
				c0.011-0.071,1.154-7.102,5.443-9.173c2.097-1.011,4.642-0.679,7.565,0.981c0.134,0.077,0.299,0.076,0.433,0.004
				c0.135-0.073,0.223-0.211,0.234-0.365c0.022-0.33,0.664-8.093,12.451-8.093c11.814,0,12.955,15.928,12.966,16.088
				c0.009,0.133,0.076,0.256,0.185,0.334c0.109,0.079,0.246,0.104,0.375,0.07c0.044-0.011,4.39-1.13,6.629,0.661
				c0.936,0.75,1.381,1.939,1.321,3.534c-0.064,1.718-0.615,2.95-1.639,3.661c-2.151,1.492-5.733,0.327-5.769,0.316
				c-0.129-0.041-0.267-0.024-0.379,0.046c-0.113,0.072-0.188,0.189-0.206,0.322c-0.003,0.03-0.409,2.985-2.764,4.4
				c-1.769,1.061-4.192,1.021-7.21-0.12c-0.051-0.019-0.105-0.029-0.158-0.029c-0.144,0-0.285,0.071-0.369,0.195
				c-0.037,0.053-3.687,5.314-9.917,6.229c-4.367,0.642-8.972-0.965-13.678-4.777c-0.092-0.075-0.21-0.108-0.327-0.097
				c-0.146,0.016-14.561,1.396-16.02-7.368C57.019,109.488,57.412,107.843,58.544,106.733z"/>
			<path style="fill:#C3D8EE;" d="M67.684,105.169c0.114,0.023,0.24-0.004,0.34-0.074c0.099-0.07,0.165-0.176,0.183-0.296
				c0.01-0.065,0.998-6.105,4.557-8.637c-0.866,1.649-1.194,3.605-0.841,5.439c0.646,3.353,3.322,6.142,6.542,7.278
				c3.22,1.137,6.875,0.722,9.95-0.763c0.82,2.622,3.448,4.564,6.195,4.579c2.747,0.015,5.396-1.9,6.243-4.513
				c2.553,3.021,7.214,3.614,10.901,2.184c1.476-0.572,2.807-1.417,4.016-2.428c0.029,0.288,0.052,0.581,0.04,0.903
				c-0.064,1.718-0.615,2.95-1.639,3.661c-2.151,1.492-5.733,0.327-5.769,0.316c-0.129-0.041-0.267-0.024-0.379,0.046
				c-0.113,0.072-0.188,0.189-0.206,0.322c-0.003,0.03-0.409,2.985-2.764,4.4c-1.769,1.061-4.192,1.021-7.21-0.12
				c-0.051-0.019-0.105-0.029-0.158-0.029c-0.144,0-0.285,0.071-0.369,0.195c-0.037,0.053-3.687,5.314-9.917,6.229
				c-4.367,0.642-8.972-0.965-13.678-4.777c-0.092-0.075-0.21-0.108-0.327-0.097c-0.146,0.016-14.561,1.396-16.02-7.368
				c-0.355-2.133,0.038-3.778,1.17-4.888C61.314,104.018,67.622,105.157,67.684,105.169z"/>
			<path style="fill:#FFC353;" d="M81.215,96.607c0.134,0.077,0.299,0.076,0.433,0.004c0.135-0.073,0.223-0.211,0.234-0.365
				c0.022-0.33,0.664-8.093,12.451-8.093c11.814,0,12.955,15.928,12.966,16.088c0.009,0.133,0.076,0.256,0.185,0.334
				c0.109,0.079,0.246,0.104,0.375,0.07c0.044-0.011,4.39-1.13,6.629,0.661c0.396,0.317,0.685,0.731,0.904,1.203
				c-1.001-0.482-2.159-0.687-3.277-0.647c-1.847,0.065-3.621,0.694-5.361,1.317c-0.961-3.379-1.949-6.816-3.878-9.752
				c-1.929-2.935-4.983-5.344-8.485-5.612c-2.718-0.209-5.428,0.9-7.53,2.635c-2.103,1.734-3.653,4.053-4.89,6.482
				c-1.117-2.746-3.593-4.758-6.37-5.834C77.267,94.936,79.144,95.431,81.215,96.607z"/>
		</g>
		<g>
			<path style="fill:#FFFFFF;" d="M34.397,397.497c0.135,0.027,0.284-0.005,0.403-0.088c0.117-0.083,0.195-0.209,0.217-0.35
				c0.013-0.084,1.366-8.406,6.442-10.857c2.482-1.196,5.494-0.804,8.954,1.161c0.159,0.091,0.353,0.09,0.513,0.005
				c0.16-0.087,0.264-0.25,0.277-0.432c0.026-0.391,0.786-9.579,14.737-9.579c13.983,0,15.334,18.852,15.347,19.042
				c0.01,0.158,0.09,0.303,0.219,0.396c0.129,0.094,0.291,0.123,0.444,0.083c0.052-0.012,5.196-1.337,7.846,0.782
				c1.107,0.887,1.634,2.294,1.564,4.183c-0.075,2.033-0.728,3.492-1.94,4.333c-2.546,1.766-6.785,0.387-6.828,0.374
				c-0.153-0.049-0.316-0.029-0.448,0.055c-0.134,0.085-0.223,0.224-0.244,0.381c-0.004,0.035-0.483,3.533-3.272,5.208
				c-2.094,1.256-4.962,1.209-8.533-0.142c-0.061-0.023-0.124-0.034-0.187-0.034c-0.171,0-0.337,0.084-0.437,0.231
				c-0.043,0.063-4.364,6.29-11.738,7.373c-5.169,0.759-10.619-1.143-16.19-5.654c-0.109-0.089-0.249-0.128-0.387-0.115
				c-0.173,0.019-17.234,1.653-18.961-8.72c-0.42-2.525,0.046-4.471,1.385-5.785C26.858,396.135,34.324,397.483,34.397,397.497z"/>
			<path style="fill:#1D2A35;" d="M21.151,405.307c1.802,10.805,17.73,9.806,19.895,9.619c4.908,3.934,9.756,5.917,14.445,5.917
				c0.808,0,1.611-0.059,2.408-0.177c6.905-1.02,11.16-6.105,12.202-7.485c3.72,1.333,6.773,1.302,9.081-0.088
				c2.507-1.511,3.38-4.18,3.655-5.374c1.356,0.349,4.79,0.984,7.182-0.673c1.503-1.041,2.31-2.78,2.399-5.165
				c0.083-2.243-0.578-3.942-1.963-5.05c-2.506-2.002-6.624-1.425-8.172-1.114c-0.375-3.372-2.872-19.419-16.343-19.419
				c-12.534,0-15.145,7.328-15.668,9.782c-3.514-1.83-6.632-2.109-9.274-0.832c-4.856,2.346-6.539,9.158-6.931,11.122
				c-1.856-0.268-8.058-0.887-11.227,2.219C21.239,400.162,20.669,402.422,21.151,405.307z M23.58,399.349
				c3.278-3.214,10.744-1.866,10.817-1.851c0.135,0.027,0.284-0.005,0.403-0.088c0.117-0.083,0.195-0.209,0.217-0.35
				c0.013-0.084,1.366-8.406,6.442-10.857c2.482-1.196,5.494-0.804,8.954,1.161c0.159,0.091,0.353,0.09,0.513,0.005
				c0.16-0.087,0.264-0.25,0.277-0.432c0.026-0.391,0.786-9.579,14.737-9.579c13.983,0,15.334,18.852,15.347,19.042
				c0.01,0.158,0.09,0.303,0.219,0.396c0.129,0.094,0.291,0.123,0.444,0.083c0.052-0.012,5.196-1.337,7.846,0.782
				c1.107,0.887,1.634,2.294,1.564,4.183c-0.075,2.033-0.728,3.492-1.94,4.333c-2.546,1.766-6.785,0.387-6.828,0.374
				c-0.153-0.049-0.316-0.029-0.448,0.055c-0.134,0.085-0.223,0.224-0.244,0.381c-0.004,0.035-0.483,3.533-3.272,5.208
				c-2.094,1.256-4.962,1.209-8.533-0.142c-0.061-0.023-0.124-0.034-0.187-0.034c-0.171,0-0.337,0.084-0.437,0.231
				c-0.043,0.063-4.364,6.29-11.738,7.373c-5.169,0.759-10.619-1.143-16.19-5.654c-0.109-0.089-0.249-0.128-0.387-0.115
				c-0.173,0.019-17.234,1.653-18.961-8.72C21.774,402.609,22.24,400.663,23.58,399.349z"/>
			<path style="fill:#C3D8EE;" d="M34.397,397.497c0.135,0.027,0.284-0.005,0.403-0.088c0.117-0.083,0.195-0.209,0.217-0.35
				c0.012-0.077,1.181-7.226,5.394-10.223c-1.025,1.952-1.413,4.267-0.995,6.438c0.764,3.969,3.932,7.269,7.743,8.615
				c3.811,1.345,8.137,0.855,11.776-0.904c0.97,3.103,4.081,5.403,7.332,5.42c3.251,0.017,6.386-2.249,7.389-5.342
				c3.022,3.576,8.538,4.278,12.903,2.585c1.747-0.677,3.322-1.677,4.753-2.874c0.034,0.341,0.062,0.688,0.048,1.068
				c-0.075,2.033-0.728,3.492-1.94,4.333c-2.546,1.766-6.785,0.387-6.828,0.374c-0.153-0.049-0.316-0.029-0.448,0.055
				c-0.134,0.085-0.223,0.224-0.244,0.381c-0.004,0.035-0.483,3.533-3.272,5.208c-2.094,1.256-4.962,1.209-8.533-0.142
				c-0.061-0.023-0.124-0.034-0.187-0.034c-0.171,0-0.337,0.084-0.437,0.231c-0.043,0.063-4.364,6.29-11.738,7.373
				c-5.169,0.759-10.619-1.143-16.19-5.654c-0.109-0.089-0.249-0.128-0.387-0.115c-0.173,0.019-17.234,1.653-18.961-8.72
				c-0.42-2.525,0.046-4.471,1.385-5.785C26.858,396.135,34.324,397.483,34.397,397.497z"/>
			<path style="fill:#FFC353;" d="M50.413,387.364c0.159,0.091,0.353,0.09,0.513,0.005c0.16-0.087,0.264-0.25,0.277-0.432
				c0.026-0.391,0.786-9.579,14.737-9.579c13.983,0,15.334,18.852,15.347,19.042c0.01,0.158,0.09,0.303,0.219,0.396
				c0.129,0.094,0.291,0.123,0.444,0.083c0.052-0.012,5.196-1.337,7.846,0.782c0.469,0.376,0.81,0.865,1.07,1.424
				c-1.184-0.57-2.556-0.813-3.879-0.766c-2.186,0.077-4.286,0.822-6.346,1.559c-1.138-3.999-2.307-8.068-4.59-11.542
				c-2.283-3.474-5.897-6.325-10.043-6.643c-3.217-0.247-6.424,1.066-8.913,3.119c-2.489,2.053-4.324,4.797-5.788,7.672
				c-1.322-3.25-4.252-5.631-7.54-6.905C45.74,385.385,47.962,385.971,50.413,387.364z"/>
		</g>
	</g>
	<g>
		<g>
			<path style="fill:#FFFFFF;" d="M279.093,308.521l1.689-0.331l-1.689-0.33c-1.092-0.213-1.935-1.057-2.148-2.148l-0.33-1.689
				l-0.331,1.689c-0.213,1.092-1.057,1.935-2.148,2.148l-1.688,0.33l1.688,0.331c1.091,0.213,1.935,1.057,2.148,2.148l0.331,1.689
				l0.33-1.689C277.158,309.577,278.001,308.734,279.093,308.521z"/>
			<path style="fill:#FFFFFF;" d="M281.604,308.04l-2.453-0.48c-0.969-0.19-1.718-0.938-1.908-1.908l-0.48-2.453
				c-0.014-0.072-0.077-0.123-0.149-0.123c-0.073,0-0.135,0.051-0.149,0.123l-0.48,2.453c-0.19,0.969-0.938,1.718-1.908,1.908
				l-2.453,0.48c-0.072,0.014-0.123,0.077-0.123,0.15c0,0.073,0.051,0.135,0.123,0.149l2.453,0.48
				c0.969,0.19,1.718,0.938,1.908,1.908l0.48,2.454c0.014,0.072,0.077,0.123,0.149,0.123c0.073,0,0.136-0.052,0.149-0.123
				l0.48-2.454c0.19-0.969,0.939-1.718,1.908-1.908l2.453-0.48c0.072-0.014,0.123-0.076,0.123-0.149
				C281.728,308.117,281.676,308.055,281.604,308.04z M276.614,312.358l-0.331-1.689c-0.213-1.091-1.057-1.935-2.148-2.148
				l-1.688-0.331l1.688-0.33c1.091-0.213,1.935-1.057,2.148-2.148l0.331-1.689l0.33,1.689c0.213,1.092,1.057,1.935,2.148,2.148
				l1.689,0.33l-1.689,0.331c-1.092,0.213-1.935,1.057-2.148,2.148L276.614,312.358z"/>
		</g>
		<g>
			<path style="fill:#FFFFFF;" d="M210.696,234.276l1.689-0.331l-1.689-0.33c-1.092-0.213-1.935-1.057-2.148-2.148l-0.33-1.688
				l-0.331,1.688c-0.213,1.092-1.057,1.935-2.148,2.148l-1.689,0.33l1.689,0.331c1.091,0.213,1.935,1.057,2.148,2.148l0.331,1.689
				l0.33-1.689C208.761,235.333,209.604,234.489,210.696,234.276z"/>
			<path style="fill:#FFFFFF;" d="M213.207,233.796l-2.453-0.48c-0.969-0.19-1.718-0.938-1.908-1.908l-0.48-2.453
				c-0.014-0.072-0.076-0.123-0.149-0.123s-0.135,0.052-0.149,0.123l-0.48,2.453c-0.19,0.969-0.938,1.718-1.908,1.908l-2.453,0.48
				c-0.072,0.014-0.123,0.077-0.123,0.149c0,0.073,0.051,0.135,0.123,0.149l2.453,0.48c0.969,0.19,1.718,0.939,1.908,1.908
				l0.48,2.453c0.014,0.072,0.076,0.123,0.149,0.123s0.135-0.051,0.149-0.123l0.48-2.453c0.19-0.969,0.939-1.718,1.908-1.908
				l2.453-0.48c0.072-0.014,0.123-0.076,0.123-0.149C213.33,233.872,213.279,233.81,213.207,233.796z M208.217,238.113l-0.331-1.689
				c-0.213-1.092-1.057-1.935-2.148-2.148l-1.689-0.331l1.689-0.33c1.091-0.213,1.935-1.057,2.148-2.148l0.331-1.688l0.33,1.688
				c0.213,1.092,1.057,1.935,2.148,2.148l1.689,0.33l-1.689,0.331c-1.092,0.213-1.935,1.057-2.148,2.148L208.217,238.113z"/>
		</g>
		<g>
			<path style="fill:#FFFFFF;" d="M180.517,467.246l1.689-0.331l-1.689-0.33c-1.092-0.213-1.935-1.057-2.148-2.148l-0.33-1.689
				l-0.331,1.689c-0.213,1.092-1.057,1.935-2.148,2.148l-1.689,0.33l1.689,0.331c1.091,0.213,1.935,1.057,2.148,2.148l0.331,1.689
				l0.33-1.689C178.582,468.302,179.425,467.459,180.517,467.246z"/>
			<path style="fill:#FFFFFF;" d="M183.028,466.766l-2.453-0.48c-0.969-0.19-1.718-0.938-1.908-1.908l-0.48-2.453
				c-0.014-0.072-0.077-0.123-0.149-0.123c-0.073,0-0.135,0.052-0.149,0.123l-0.48,2.453c-0.19,0.969-0.938,1.718-1.908,1.908
				l-2.453,0.48c-0.072,0.014-0.123,0.076-0.123,0.149s0.051,0.135,0.123,0.149l2.453,0.48c0.969,0.19,1.718,0.938,1.908,1.908
				l0.48,2.453c0.014,0.072,0.076,0.123,0.149,0.123c0.073,0,0.135-0.051,0.149-0.123l0.48-2.453
				c0.19-0.969,0.939-1.718,1.908-1.908l2.453-0.48c0.072-0.014,0.123-0.077,0.123-0.149S183.1,466.78,183.028,466.766z
				 M178.038,471.083l-0.331-1.689c-0.213-1.092-1.057-1.935-2.148-2.148l-1.689-0.331l1.689-0.33
				c1.091-0.213,1.935-1.057,2.148-2.148l0.331-1.689l0.33,1.689c0.213,1.092,1.057,1.935,2.148,2.148l1.689,0.33l-1.689,0.331
				c-1.092,0.213-1.935,1.057-2.148,2.148L178.038,471.083z"/>
		</g>
		<g>
			<path style="fill:#FFFFFF;" d="M431.347,136.967l1.689-0.331l-1.689-0.33c-1.092-0.213-1.935-1.057-2.148-2.148l-0.33-1.688
				l-0.331,1.688c-0.213,1.092-1.057,1.935-2.148,2.148l-1.689,0.33l1.689,0.331c1.091,0.214,1.935,1.057,2.148,2.148l0.331,1.689
				l0.33-1.689C429.412,138.023,430.255,137.18,431.347,136.967z"/>
			<path style="fill:#FFFFFF;" d="M433.858,136.487l-2.453-0.48c-0.969-0.19-1.718-0.939-1.908-1.908l-0.48-2.453
				c-0.014-0.072-0.077-0.123-0.149-0.123s-0.135,0.051-0.149,0.123l-0.48,2.453c-0.19,0.969-0.939,1.718-1.908,1.908l-2.453,0.48
				c-0.072,0.014-0.123,0.076-0.123,0.149c0,0.073,0.052,0.135,0.123,0.149l2.453,0.48c0.969,0.19,1.718,0.938,1.908,1.908
				l0.48,2.453c0.014,0.072,0.076,0.123,0.149,0.123s0.135-0.051,0.149-0.123l0.48-2.453c0.19-0.969,0.939-1.718,1.908-1.908
				l2.453-0.48c0.072-0.014,0.123-0.077,0.123-0.149C433.981,136.563,433.93,136.501,433.858,136.487z M428.868,140.803
				l-0.331-1.689c-0.213-1.091-1.057-1.935-2.148-2.148l-1.689-0.331l1.689-0.33c1.091-0.213,1.935-1.057,2.148-2.148l0.331-1.688
				l0.33,1.688c0.213,1.092,1.057,1.935,2.148,2.148l1.689,0.33l-1.689,0.331c-1.092,0.214-1.935,1.057-2.148,2.148L428.868,140.803
				z"/>
		</g>
		<g>
			<path style="fill:#FFFFFF;" d="M407.358,432.499l1.688-0.331l-1.688-0.33c-1.092-0.213-1.935-1.057-2.148-2.148l-0.33-1.689
				l-0.331,1.689c-0.214,1.092-1.057,1.935-2.148,2.148l-1.688,0.33l1.688,0.331c1.091,0.213,1.935,1.057,2.148,2.148l0.331,1.689
				l0.33-1.689C405.423,433.555,406.267,432.712,407.358,432.499z"/>
			<path style="fill:#FFFFFF;" d="M409.87,432.019l-2.453-0.48c-0.969-0.19-1.718-0.939-1.908-1.908l-0.48-2.453
				c-0.014-0.072-0.076-0.123-0.149-0.123c-0.073,0-0.135,0.052-0.149,0.123l-0.48,2.453c-0.19,0.969-0.938,1.718-1.908,1.908
				l-2.453,0.48c-0.072,0.014-0.123,0.077-0.123,0.149c0,0.073,0.052,0.135,0.123,0.149l2.453,0.48
				c0.969,0.19,1.718,0.939,1.908,1.908l0.48,2.453c0.014,0.072,0.077,0.123,0.149,0.123c0.073,0,0.135-0.052,0.149-0.123
				l0.48-2.453c0.19-0.969,0.939-1.718,1.908-1.908l2.453-0.48c0.072-0.014,0.123-0.077,0.123-0.149
				C409.993,432.095,409.942,432.033,409.87,432.019z M404.88,436.336l-0.331-1.689c-0.214-1.091-1.057-1.935-2.148-2.148
				l-1.688-0.331l1.688-0.33c1.091-0.213,1.935-1.057,2.148-2.148l0.331-1.689l0.33,1.689c0.213,1.092,1.057,1.935,2.148,2.148
				l1.688,0.33l-1.688,0.331c-1.092,0.213-1.935,1.057-2.148,2.148L404.88,436.336z"/>
		</g>
		<g>
			<path style="fill:#FFFFFF;" d="M68.008,57.615l1.688-0.331l-1.688-0.33c-1.092-0.213-1.935-1.057-2.148-2.148l-0.33-1.688
				l-0.331,1.688c-0.213,1.092-1.057,1.935-2.148,2.148l-1.688,0.33l1.688,0.331c1.092,0.213,1.935,1.057,2.148,2.148l0.331,1.689
				l0.33-1.689C66.073,58.671,66.916,57.828,68.008,57.615z"/>
			<path style="fill:#FFFFFF;" d="M70.519,57.134l-2.453-0.48c-0.969-0.19-1.718-0.938-1.908-1.908l-0.48-2.453
				c-0.014-0.072-0.076-0.123-0.149-0.123s-0.135,0.051-0.149,0.123l-0.48,2.453c-0.19,0.969-0.938,1.718-1.908,1.908l-2.453,0.48
				c-0.072,0.014-0.123,0.076-0.123,0.15c0,0.073,0.052,0.135,0.123,0.149l2.453,0.48c0.969,0.19,1.718,0.938,1.908,1.907
				l0.48,2.454c0.014,0.072,0.076,0.123,0.149,0.123s0.135-0.052,0.149-0.123l0.48-2.454c0.19-0.969,0.939-1.718,1.908-1.907
				l2.453-0.48c0.072-0.014,0.123-0.076,0.123-0.149C70.642,57.211,70.591,57.148,70.519,57.134z M65.529,61.451l-0.331-1.689
				c-0.213-1.091-1.057-1.935-2.148-2.148l-1.688-0.331l1.688-0.33c1.092-0.213,1.935-1.057,2.148-2.148l0.331-1.688l0.33,1.688
				c0.213,1.092,1.057,1.935,2.148,2.148l1.688,0.33l-1.688,0.331c-1.092,0.213-1.935,1.057-2.148,2.148L65.529,61.451z"/>
		</g>
		<g>
			<path style="fill:#FFFFFF;" d="M234.246,216.555l2.902-0.568l-2.902-0.568c-1.876-0.367-3.326-1.816-3.692-3.692l-0.568-2.902
				l-0.568,2.902c-0.367,1.876-1.816,3.326-3.692,3.692l-2.902,0.568l2.902,0.568c1.876,0.367,3.325,1.816,3.692,3.692l0.568,2.902
				l0.568-2.902C230.921,218.371,232.37,216.922,234.246,216.555z"/>
			<path style="fill:#FFFFFF;" d="M238.563,215.73l-4.216-0.825c-1.666-0.326-2.953-1.613-3.279-3.279l-0.825-4.216
				c-0.024-0.123-0.131-0.212-0.257-0.212c-0.125,0-0.233,0.089-0.257,0.212l-0.825,4.216c-0.326,1.666-1.613,2.953-3.278,3.279
				l-4.216,0.825c-0.123,0.024-0.212,0.131-0.212,0.257c0,0.125,0.089,0.233,0.212,0.257l4.216,0.825
				c1.666,0.326,2.952,1.613,3.278,3.279l0.825,4.217c0.024,0.123,0.132,0.212,0.257,0.212c0.125,0,0.233-0.088,0.257-0.212
				l0.825-4.217c0.326-1.666,1.613-2.953,3.279-3.279l4.216-0.825c0.123-0.024,0.212-0.132,0.212-0.257
				C238.775,215.862,238.686,215.754,238.563,215.73z M229.986,223.15l-0.568-2.902c-0.367-1.876-1.816-3.325-3.692-3.692
				l-2.902-0.568l2.902-0.568c1.876-0.367,3.325-1.816,3.692-3.692l0.568-2.902l0.568,2.902c0.367,1.876,1.816,3.326,3.692,3.692
				l2.902,0.568l-2.902,0.568c-1.876,0.367-3.326,1.816-3.692,3.692L229.986,223.15z"/>
		</g>
		<g>
			<path style="fill:#FFFFFF;" d="M161.446,452.427l2.902-0.568l-2.902-0.568c-1.876-0.367-3.326-1.816-3.692-3.692l-0.568-2.902
				l-0.568,2.902c-0.367,1.876-1.816,3.326-3.692,3.692l-2.902,0.568l2.902,0.568c1.876,0.367,3.325,1.816,3.692,3.692l0.568,2.903
				l0.568-2.903C158.121,454.243,159.57,452.794,161.446,452.427z"/>
			<path style="fill:#FFFFFF;" d="M165.763,451.602l-4.216-0.825c-1.666-0.326-2.953-1.613-3.279-3.279l-0.825-4.216
				c-0.024-0.123-0.131-0.212-0.257-0.212c-0.125,0-0.233,0.089-0.257,0.212l-0.825,4.216c-0.326,1.666-1.613,2.953-3.278,3.279
				l-4.216,0.825c-0.123,0.024-0.212,0.132-0.212,0.257c0,0.125,0.088,0.233,0.212,0.257l4.216,0.825
				c1.666,0.326,2.952,1.613,3.278,3.279l0.825,4.217c0.024,0.123,0.132,0.212,0.257,0.212c0.125,0,0.233-0.089,0.257-0.212
				l0.825-4.217c0.326-1.666,1.613-2.953,3.279-3.279l4.216-0.825c0.123-0.024,0.212-0.131,0.212-0.257
				C165.975,451.734,165.886,451.626,165.763,451.602z M157.186,459.022l-0.568-2.903c-0.367-1.876-1.816-3.325-3.692-3.692
				l-2.902-0.568l2.902-0.568c1.876-0.367,3.325-1.816,3.692-3.692l0.568-2.902l0.568,2.902c0.367,1.876,1.816,3.326,3.692,3.692
				l2.902,0.568l-2.902,0.568c-1.876,0.367-3.326,1.816-3.692,3.692L157.186,459.022z"/>
		</g>
		<g>
			<path style="fill:#FFFFFF;" d="M469.023,242.899l2.902-0.568l-2.902-0.568c-1.876-0.367-3.326-1.816-3.692-3.692l-0.568-2.902
				l-0.568,2.902c-0.367,1.876-1.816,3.326-3.692,3.692l-2.902,0.568l2.902,0.568c1.876,0.367,3.325,1.816,3.692,3.692l0.568,2.902
				l0.568-2.902C465.697,244.715,467.146,243.266,469.023,242.899z"/>
			<path style="fill:#FFFFFF;" d="M473.339,242.074l-4.216-0.825c-1.666-0.326-2.953-1.613-3.279-3.279l-0.825-4.216
				c-0.024-0.123-0.132-0.212-0.257-0.212c-0.125,0-0.233,0.089-0.257,0.212l-0.825,4.216c-0.326,1.666-1.613,2.953-3.279,3.279
				l-4.216,0.825c-0.123,0.024-0.212,0.131-0.212,0.257c0,0.125,0.089,0.233,0.212,0.257l4.216,0.825
				c1.666,0.326,2.952,1.613,3.279,3.278l0.825,4.217c0.024,0.123,0.132,0.212,0.257,0.212c0.125,0,0.233-0.089,0.257-0.212
				l0.825-4.217c0.326-1.666,1.613-2.953,3.279-3.278l4.216-0.825c0.123-0.024,0.212-0.132,0.212-0.257
				C473.551,242.205,473.463,242.098,473.339,242.074z M464.763,249.493l-0.568-2.902c-0.367-1.876-1.816-3.325-3.692-3.692
				l-2.902-0.568l2.902-0.568c1.876-0.367,3.325-1.816,3.692-3.692l0.568-2.902l0.568,2.902c0.367,1.876,1.816,3.326,3.692,3.692
				l2.902,0.568l-2.902,0.568c-1.876,0.367-3.326,1.816-3.692,3.692L464.763,249.493z"/>
		</g>
		<g>
			<path style="fill:#FFFFFF;" d="M325.121,35.011l2.902-0.568l-2.902-0.568c-1.876-0.367-3.326-1.816-3.692-3.692l-0.568-2.902
				l-0.568,2.902c-0.367,1.876-1.816,3.326-3.692,3.692l-2.902,0.568l2.902,0.568c1.876,0.367,3.325,1.816,3.692,3.692l0.568,2.903
				l0.568-2.903C321.796,36.827,323.245,35.377,325.121,35.011z"/>
			<path style="fill:#FFFFFF;" d="M329.438,34.186l-4.216-0.825c-1.666-0.326-2.953-1.613-3.279-3.279l-0.825-4.216
				c-0.024-0.123-0.131-0.212-0.257-0.212c-0.125,0-0.233,0.088-0.257,0.212l-0.825,4.216c-0.326,1.666-1.613,2.953-3.279,3.279
				l-4.216,0.825c-0.123,0.024-0.212,0.131-0.212,0.257c0,0.125,0.089,0.233,0.212,0.257l4.216,0.825
				c1.666,0.326,2.952,1.613,3.279,3.278l0.825,4.217c0.024,0.123,0.132,0.212,0.257,0.212c0.125,0,0.233-0.089,0.257-0.212
				l0.825-4.217c0.326-1.666,1.613-2.953,3.279-3.278l4.216-0.825c0.123-0.024,0.212-0.132,0.212-0.257
				C329.65,34.317,329.561,34.21,329.438,34.186z M320.861,41.605l-0.568-2.903c-0.367-1.876-1.816-3.325-3.692-3.692l-2.902-0.568
				l2.902-0.568c1.876-0.367,3.325-1.816,3.692-3.692l0.568-2.902l0.568,2.902c0.367,1.876,1.816,3.326,3.692,3.692l2.902,0.568
				l-2.902,0.568c-1.876,0.367-3.326,1.816-3.692,3.692L320.861,41.605z"/>
		</g>
		<g>
			<path style="fill:#FFFFFF;" d="M59.093,280.336l1.736-0.34l-1.736-0.34c-1.122-0.219-1.989-1.086-2.208-2.208l-0.34-1.736
				l-0.34,1.736c-0.219,1.122-1.086,1.989-2.208,2.208l-1.735,0.34l1.735,0.34c1.122,0.219,1.988,1.086,2.208,2.208l0.34,1.736
				l0.34-1.736C57.104,281.422,57.971,280.556,59.093,280.336z"/>
			<path style="fill:#FFFFFF;" d="M61.674,279.843l-2.521-0.493c-0.996-0.195-1.766-0.965-1.961-1.961l-0.493-2.521
				c-0.014-0.074-0.079-0.127-0.154-0.127c-0.075,0-0.139,0.053-0.154,0.127l-0.493,2.521c-0.195,0.996-0.965,1.766-1.961,1.961
				l-2.521,0.493c-0.074,0.014-0.127,0.079-0.127,0.154c0,0.075,0.053,0.139,0.127,0.154l2.521,0.493
				c0.996,0.195,1.765,0.965,1.961,1.961l0.493,2.522c0.014,0.074,0.079,0.127,0.154,0.127c0.075,0,0.139-0.053,0.154-0.127
				l0.493-2.522c0.195-0.996,0.965-1.766,1.961-1.961l2.521-0.493c0.074-0.014,0.127-0.079,0.127-0.154
				C61.801,279.921,61.748,279.857,61.674,279.843z M56.545,284.28l-0.34-1.736c-0.219-1.122-1.086-1.988-2.208-2.208l-1.735-0.34
				l1.735-0.34c1.122-0.219,1.988-1.086,2.208-2.208l0.34-1.736l0.34,1.736c0.219,1.122,1.086,1.989,2.208,2.208l1.736,0.34
				l-1.736,0.34c-1.122,0.219-1.989,1.086-2.208,2.208L56.545,284.28z"/>
		</g>
	</g>
	<g>
		<g>
			<path style="fill:#E98B31;" d="M418.824,200.475l5.564-1.09l-5.564-1.089c-3.598-0.703-6.376-3.482-7.08-7.08l-1.089-5.564
				l-1.09,5.564c-0.703,3.598-3.482,6.376-7.079,7.08l-5.564,1.089l5.564,1.09c3.597,0.703,6.375,3.482,7.079,7.079l1.09,5.565
				l1.089-5.565C412.447,203.957,415.226,201.178,418.824,200.475z"/>
			<path style="fill:#1D2A35;" d="M427.1,198.893l-8.084-1.581c-3.194-0.625-5.662-3.093-6.287-6.287l-1.581-8.084
				c-0.046-0.236-0.252-0.406-0.492-0.406s-0.446,0.17-0.492,0.406l-1.582,8.084c-0.625,3.194-3.092,5.661-6.286,6.287l-8.084,1.581
				c-0.236,0.046-0.406,0.252-0.406,0.492s0.17,0.446,0.406,0.492l8.084,1.582c3.194,0.626,5.66,3.093,6.286,6.286l1.582,8.085
				c0.046,0.236,0.252,0.406,0.492,0.406s0.446-0.17,0.492-0.406l1.581-8.085c0.626-3.194,3.094-5.661,6.287-6.286l8.084-1.582
				c0.236-0.046,0.406-0.252,0.406-0.492S427.336,198.939,427.1,198.893z M410.655,213.119l-1.09-5.565
				c-0.703-3.597-3.482-6.375-7.079-7.079l-5.564-1.09l5.564-1.089c3.597-0.703,6.375-3.482,7.079-7.08l1.09-5.564l1.089,5.564
				c0.703,3.598,3.482,6.376,7.08,7.08l5.564,1.089l-5.564,1.09c-3.598,0.703-6.376,3.482-7.08,7.079L410.655,213.119z"/>
		</g>
		<g>
			<path style="fill:#E98B31;" d="M65.057,167.931l3.357-0.657l-3.357-0.657c-2.17-0.424-3.847-2.1-4.271-4.271l-0.657-3.357
				l-0.657,3.357c-0.424,2.17-2.1,3.847-4.27,4.271l-3.357,0.657l3.357,0.657c2.17,0.424,3.846,2.101,4.27,4.27l0.657,3.357
				l0.657-3.357C61.21,170.031,62.886,168.355,65.057,167.931z"/>
			<path style="fill:#1D2A35;" d="M70.049,166.976l-4.877-0.954c-1.927-0.377-3.416-1.866-3.793-3.793l-0.954-4.877
				c-0.028-0.143-0.152-0.245-0.297-0.245c-0.145,0-0.269,0.102-0.297,0.245l-0.954,4.877c-0.377,1.927-1.866,3.415-3.792,3.793
				l-4.877,0.954c-0.143,0.028-0.245,0.152-0.245,0.297c0,0.145,0.102,0.269,0.245,0.297l4.877,0.954
				c1.926,0.378,3.415,1.866,3.792,3.792l0.954,4.877c0.028,0.143,0.152,0.245,0.297,0.245c0.145,0,0.269-0.102,0.297-0.245
				l0.954-4.877c0.378-1.926,1.866-3.415,3.793-3.792l4.877-0.954c0.143-0.028,0.245-0.152,0.245-0.297
				C70.294,167.128,70.192,167.004,70.049,166.976z M60.129,175.558l-0.657-3.357c-0.424-2.17-2.1-3.846-4.27-4.27l-3.357-0.657
				l3.357-0.657c2.17-0.424,3.846-2.1,4.27-4.271l0.657-3.357l0.657,3.357c0.424,2.17,2.1,3.847,4.271,4.271l3.357,0.657
				l-3.357,0.657c-2.17,0.424-3.847,2.101-4.271,4.27L60.129,175.558z"/>
		</g>
		<g>
			<path style="fill:#E98B31;" d="M265.231,464.967l3.357-0.657l-3.357-0.657c-2.17-0.424-3.847-2.1-4.271-4.271l-0.657-3.357
				l-0.657,3.357c-0.424,2.17-2.1,3.847-4.27,4.271l-3.357,0.657l3.357,0.657c2.17,0.424,3.846,2.1,4.27,4.27l0.657,3.357
				l0.657-3.357C261.385,467.068,263.061,465.392,265.231,464.967z"/>
			<path style="fill:#1D2A35;" d="M270.224,464.013l-4.877-0.954c-1.927-0.377-3.416-1.866-3.793-3.793l-0.954-4.877
				c-0.028-0.143-0.152-0.245-0.297-0.245c-0.145,0-0.269,0.102-0.297,0.245l-0.954,4.877c-0.377,1.927-1.866,3.415-3.792,3.793
				l-4.877,0.954c-0.143,0.028-0.245,0.152-0.245,0.297c0,0.145,0.102,0.269,0.245,0.297l4.877,0.954
				c1.927,0.378,3.415,1.866,3.792,3.792l0.954,4.877c0.028,0.143,0.152,0.245,0.297,0.245c0.145,0,0.269-0.102,0.297-0.245
				l0.954-4.877c0.378-1.927,1.866-3.415,3.793-3.792l4.877-0.954c0.143-0.028,0.245-0.152,0.245-0.297
				C270.469,464.165,270.367,464.041,270.224,464.013z M260.304,472.595l-0.657-3.357c-0.424-2.17-2.1-3.846-4.27-4.27l-3.357-0.657
				l3.357-0.657c2.17-0.424,3.846-2.1,4.27-4.271l0.657-3.357l0.657,3.357c0.424,2.17,2.1,3.847,4.271,4.271l3.357,0.657
				l-3.357,0.657c-2.17,0.424-3.847,2.1-4.271,4.27L260.304,472.595z"/>
		</g>
		<g>
			<path style="fill:#E98B31;" d="M49.344,358.101l3.357-0.657l-3.357-0.657c-2.17-0.424-3.847-2.1-4.271-4.271l-0.657-3.357
				l-0.657,3.357c-0.424,2.17-2.1,3.846-4.27,4.271l-3.357,0.657l3.357,0.657c2.17,0.424,3.846,2.1,4.27,4.27l0.657,3.357
				l0.657-3.357C45.497,360.201,47.174,358.525,49.344,358.101z"/>
			<path style="fill:#1D2A35;" d="M54.337,357.147l-4.877-0.954c-1.927-0.377-3.416-1.866-3.793-3.793l-0.954-4.877
				c-0.028-0.143-0.152-0.245-0.297-0.245c-0.145,0-0.269,0.102-0.297,0.245l-0.954,4.877c-0.377,1.927-1.866,3.415-3.792,3.793
				l-4.877,0.954c-0.143,0.028-0.245,0.152-0.245,0.297c0,0.145,0.102,0.269,0.245,0.297l4.877,0.954
				c1.927,0.378,3.415,1.866,3.792,3.792l0.954,4.877c0.028,0.143,0.152,0.245,0.297,0.245c0.145,0,0.269-0.102,0.297-0.245
				l0.954-4.877c0.378-1.927,1.866-3.415,3.793-3.792l4.877-0.954c0.143-0.028,0.245-0.152,0.245-0.297
				C54.582,357.299,54.479,357.174,54.337,357.147z M44.417,365.728l-0.657-3.357c-0.424-2.17-2.1-3.846-4.27-4.27l-3.357-0.657
				l3.357-0.657c2.17-0.424,3.846-2.1,4.27-4.271l0.657-3.357l0.657,3.357c0.424,2.17,2.1,3.846,4.271,4.271l3.357,0.657
				l-3.357,0.657c-2.17,0.424-3.847,2.1-4.271,4.27L44.417,365.728z"/>
		</g>
		<g>
			<path style="fill:#E98B31;" d="M442.904,41.987l3.357-0.657l-3.357-0.657c-2.17-0.424-3.846-2.1-4.271-4.271l-0.657-3.357
				l-0.657,3.357c-0.424,2.17-2.1,3.847-4.27,4.271l-3.357,0.657l3.357,0.657c2.17,0.424,3.846,2.1,4.27,4.27l0.657,3.357
				l0.657-3.357C439.058,44.088,440.734,42.412,442.904,41.987z"/>
			<path style="fill:#1D2A35;" d="M447.897,41.033l-4.877-0.954c-1.927-0.377-3.416-1.866-3.793-3.793l-0.954-4.877
				c-0.028-0.143-0.152-0.245-0.297-0.245c-0.145,0-0.269,0.102-0.297,0.245l-0.954,4.877c-0.377,1.927-1.866,3.415-3.792,3.793
				l-4.877,0.954c-0.143,0.028-0.245,0.152-0.245,0.297c0,0.145,0.102,0.269,0.245,0.297l4.877,0.954
				c1.927,0.377,3.415,1.866,3.792,3.792l0.954,4.877c0.028,0.143,0.152,0.245,0.297,0.245c0.145,0,0.269-0.102,0.297-0.245
				l0.954-4.877c0.378-1.927,1.866-3.415,3.793-3.792l4.877-0.954c0.143-0.028,0.245-0.152,0.245-0.297
				C448.142,41.185,448.04,41.061,447.897,41.033z M437.977,49.615l-0.657-3.357c-0.424-2.17-2.1-3.846-4.27-4.27l-3.357-0.657
				l3.357-0.657c2.17-0.424,3.846-2.1,4.27-4.271l0.657-3.357l0.657,3.357c0.424,2.17,2.101,3.847,4.271,4.271l3.357,0.657
				l-3.357,0.657c-2.17,0.424-3.846,2.1-4.271,4.27L437.977,49.615z"/>
		</g>
		<g>
			<path style="fill:#E98B31;" d="M213.326,73.57l4.445-0.87l-4.445-0.87c-2.874-0.562-5.094-2.782-5.656-5.656l-0.87-4.445
				l-0.871,4.445c-0.562,2.874-2.782,5.094-5.655,5.656l-4.445,0.87l4.445,0.87c2.874,0.562,5.093,2.782,5.655,5.655l0.871,4.446
				l0.87-4.446C208.232,76.352,210.452,74.132,213.326,73.57z"/>
			<path style="fill:#1D2A35;" d="M219.938,72.306l-6.458-1.263c-2.552-0.499-4.524-2.471-5.023-5.023l-1.263-6.458
				c-0.037-0.189-0.201-0.324-0.393-0.324c-0.192,0-0.357,0.136-0.393,0.324l-1.264,6.458c-0.499,2.551-2.471,4.523-5.022,5.023
				l-6.458,1.263c-0.189,0.037-0.324,0.201-0.324,0.393c0,0.192,0.136,0.356,0.324,0.393l6.458,1.264
				c2.551,0.5,4.522,2.471,5.022,5.022l1.264,6.459c0.037,0.189,0.201,0.324,0.393,0.324c0.192,0,0.357-0.135,0.393-0.324
				l1.263-6.459c0.5-2.551,2.471-4.523,5.023-5.022l6.458-1.264c0.189-0.037,0.324-0.201,0.324-0.393
				C220.262,72.508,220.127,72.343,219.938,72.306z M206.8,83.672l-0.871-4.446c-0.562-2.873-2.782-5.093-5.655-5.655l-4.445-0.87
				l4.445-0.87c2.874-0.562,5.093-2.782,5.655-5.656l0.871-4.445l0.87,4.445c0.562,2.874,2.782,5.094,5.656,5.656l4.445,0.87
				l-4.445,0.87c-2.874,0.562-5.094,2.782-5.656,5.655L206.8,83.672z"/>
		</g>
		<g>
			<path style="fill:#E98B31;" d="M445.582,363.394l4.757-0.932l-4.757-0.931c-3.076-0.601-5.452-2.977-6.053-6.053l-0.931-4.757
				l-0.932,4.757c-0.601,3.076-2.977,5.452-6.052,6.053l-4.757,0.931l4.757,0.932c3.075,0.601,5.451,2.977,6.052,6.052l0.932,4.758
				l0.931-4.758C440.13,366.371,442.506,363.995,445.582,363.394z"/>
			<path style="fill:#1D2A35;" d="M452.658,362.041l-6.911-1.352c-2.731-0.534-4.841-2.644-5.375-5.375l-1.352-6.911
				c-0.039-0.202-0.215-0.347-0.421-0.347c-0.205,0-0.382,0.145-0.421,0.347l-1.353,6.911c-0.534,2.73-2.644,4.84-5.374,5.375
				l-6.911,1.352c-0.202,0.039-0.347,0.216-0.347,0.421c0,0.205,0.145,0.382,0.347,0.421l6.911,1.353
				c2.73,0.535,4.839,2.644,5.374,5.374l1.353,6.912c0.039,0.202,0.216,0.347,0.421,0.347c0.206,0,0.382-0.145,0.421-0.347
				l1.352-6.912c0.535-2.73,2.645-4.84,5.375-5.374l6.911-1.353c0.202-0.039,0.347-0.216,0.347-0.421
				C453.005,362.257,452.86,362.08,452.658,362.041z M438.598,374.204l-0.932-4.758c-0.601-3.075-2.977-5.451-6.052-6.052
				l-4.757-0.932l4.757-0.931c3.075-0.601,5.451-2.977,6.052-6.053l0.932-4.757l0.931,4.757c0.601,3.076,2.977,5.452,6.053,6.053
				l4.757,0.931l-4.757,0.932c-3.076,0.601-5.452,2.977-6.053,6.052L438.598,374.204z"/>
		</g>
		<g>
			<path style="fill:#E98B31;" d="M45.911,196.253l1.993-0.39l-1.993-0.39c-1.289-0.252-2.284-1.247-2.535-2.536l-0.39-1.993
				l-0.39,1.993c-0.252,1.288-1.247,2.284-2.535,2.536l-1.993,0.39l1.993,0.39c1.288,0.252,2.283,1.247,2.535,2.535l0.39,1.993
				l0.39-1.993C43.627,197.501,44.622,196.505,45.911,196.253z"/>
			<path style="fill:#1D2A35;" d="M48.875,195.687l-2.895-0.566c-1.144-0.224-2.028-1.108-2.252-2.252l-0.566-2.895
				c-0.017-0.085-0.09-0.146-0.176-0.146c-0.086,0-0.16,0.061-0.176,0.146l-0.567,2.895c-0.224,1.144-1.108,2.028-2.251,2.252
				l-2.895,0.566c-0.085,0.016-0.145,0.09-0.145,0.176c0,0.086,0.061,0.16,0.145,0.176l2.895,0.567
				c1.144,0.224,2.027,1.108,2.251,2.251l0.567,2.896c0.016,0.085,0.09,0.145,0.176,0.145c0.086,0,0.16-0.061,0.176-0.145
				l0.566-2.896c0.224-1.144,1.108-2.027,2.252-2.251l2.895-0.567c0.085-0.016,0.145-0.09,0.145-0.176
				C49.021,195.777,48.96,195.703,48.875,195.687z M42.986,200.782l-0.39-1.993c-0.252-1.288-1.247-2.283-2.535-2.535l-1.993-0.39
				l1.993-0.39c1.288-0.252,2.283-1.247,2.535-2.536l0.39-1.993l0.39,1.993c0.252,1.288,1.247,2.284,2.535,2.536l1.993,0.39
				l-1.993,0.39c-1.289,0.252-2.284,1.247-2.535,2.535L42.986,200.782z"/>
		</g>
	</g>
</g>
</svg>
